Benzinova-Thin-Extended.ufo
<glyph name="percent" format="1">
  <advance width="616.0"/>
  <unicode hex="0025"/>
  <outline>
    <contour>
      <point x="256" y="583" type="curve" smooth="yes"/>
      <point x="352" y="583"/>
      <point x="431" y="662"/>
      <point x="431" y="758" type="curve" smooth="yes"/>
      <point x="431" y="855"/>
      <point x="352" y="933"/>
      <point x="256" y="933" type="curve" smooth="yes"/>
      <point x="159" y="933"/>
      <point x="81" y="855"/>
      <point x="81" y="758" type="curve" smooth="yes"/>
      <point x="81" y="662"/>
      <point x="159" y="583"/>
    </contour>
    <contour>
      <point x="256" y="615" type="curve" smooth="yes"/>
      <point x="177" y="615"/>
      <point x="113" y="680"/>
      <point x="113" y="758" type="curve" smooth="yes"/>
      <point x="113" y="837"/>
      <point x="177" y="901"/>
      <point x="256" y="901" type="curve" smooth="yes"/>
      <point x="334" y="901"/>
      <point x="399" y="837"/>
      <point x="399" y="758" type="curve" smooth="yes"/>
      <point x="399" y="680"/>
      <point x="334" y="615"/>
    </contour>
    <contour>
      <point x="868" y="923" type="line" smooth="yes"/>
      <point x="874" y="929"/>
      <point x="873" y="940"/>
      <point x="866" y="945" type="curve" smooth="yes"/>
      <point x="860" y="951"/>
      <point x="849" y="950"/>
      <point x="844" y="943" type="curve" smooth="yes"/>
      <point x="84" y="26" type="line" smooth="yes"/>
      <point x="78" y="20"/>
      <point x="79" y="9"/>
      <point x="86" y="4" type="curve" smooth="yes"/>
      <point x="92" y="-2"/>
      <point x="103" y="-1"/>
      <point x="108" y="6" type="curve" smooth="yes"/>
    </contour>
    <contour>
      <point x="697" y="0" type="curve" smooth="yes"/>
      <point x="793" y="0"/>
      <point x="872" y="79"/>
      <point x="872" y="175" type="curve" smooth="yes"/>
      <point x="872" y="272"/>
      <point x="793" y="350"/>
      <point x="697" y="350" type="curve" smooth="yes"/>
      <point x="600" y="350"/>
      <point x="522" y="272"/>
      <point x="522" y="175" type="curve" smooth="yes"/>
      <point x="522" y="79"/>
      <point x="600" y="0"/>
    </contour>
    <contour>
      <point x="697" y="32" type="curve" smooth="yes"/>
      <point x="618" y="32"/>
      <point x="554" y="97"/>
      <point x="554" y="175" type="curve" smooth="yes"/>
      <point x="554" y="254"/>
      <point x="618" y="318"/>
      <point x="697" y="318" type="curve" smooth="yes"/>
      <point x="775" y="318"/>
      <point x="840" y="254"/>
      <point x="840" y="175" type="curve" smooth="yes"/>
      <point x="840" y="97"/>
      <point x="775" y="32"/>
    </contour>
  </outline>
</glyph>
<glyph name="ampersand" format="1">
  <advance width="722.0"/>
  <unicode hex="0026"/>
  <outline>
    <contour>
      <point x="564" y="770" type="curve" smooth="yes"/>
      <point x="564" y="761"/>
      <point x="571" y="754"/>
      <point x="580" y="754" type="curve" smooth="yes"/>
      <point x="589" y="754"/>
      <point x="596" y="761"/>
      <point x="596" y="770" type="curve" smooth="yes"/>
      <point x="596" y="900"/>
      <point x="490" y="1006"/>
      <point x="360" y="1006" type="curve" smooth="yes"/>
      <point x="230" y="1006"/>
      <point x="124" y="900"/>
      <point x="124" y="770" type="curve" smooth="yes"/>
      <point x="124" y="768" type="line" smooth="yes"/>
      <point x="124" y="638"/>
      <point x="230" y="532"/>
      <point x="360" y="532" type="curve" smooth="yes"/>
      <point x="369" y="532"/>
      <point x="376" y="539"/>
      <point x="376" y="548" type="curve" smooth="yes"/>
      <point x="376" y="557"/>
      <point x="369" y="564"/>
      <point x="360" y="564" type="curve" smooth="yes"/>
      <point x="248" y="564"/>
      <point x="156" y="656"/>
      <point x="156" y="768" type="curve" smooth="yes"/>
      <point x="156" y="770" type="line" smooth="yes"/>
      <point x="156" y="882"/>
      <point x="248" y="974"/>
      <point x="360" y="974" type="curve" smooth="yes"/>
      <point x="472" y="974"/>
      <point x="564" y="882"/>
    </contour>
    <contour>
      <point x="746" y="-16" type="curve" smooth="yes"/>
      <point x="755" y="-16"/>
      <point x="762" y="-9"/>
      <point x="762" y="0" type="curve" smooth="yes"/>
      <point x="762" y="9"/>
      <point x="755" y="16"/>
      <point x="746" y="16" type="curve" smooth="yes"/>
      <point x="696" y="16"/>
      <point x="656" y="58"/>
      <point x="656" y="108" type="curve" smooth="yes"/>
      <point x="656" y="268" type="line" smooth="yes"/>
      <point x="656" y="431"/>
      <point x="523" y="564"/>
      <point x="360" y="564" type="curve" smooth="yes"/>
      <point x="197" y="564"/>
      <point x="64" y="431"/>
      <point x="64" y="268" type="curve" smooth="yes"/>
      <point x="64" y="264" type="line" smooth="yes"/>
      <point x="64" y="101"/>
      <point x="197" y="-32"/>
      <point x="360" y="-32" type="curve" smooth="yes"/>
      <point x="515" y="-32"/>
      <point x="656" y="31"/>
      <point x="757" y="133" type="curve" smooth="yes"/>
      <point x="763" y="139"/>
      <point x="763" y="149"/>
      <point x="757" y="155" type="curve" smooth="yes"/>
      <point x="751" y="161"/>
      <point x="741" y="161"/>
      <point x="735" y="155" type="curve" smooth="yes"/>
      <point x="640" y="59"/>
      <point x="507" y="0"/>
      <point x="360" y="0" type="curve" smooth="yes"/>
      <point x="215" y="0"/>
      <point x="96" y="119"/>
      <point x="96" y="264" type="curve" smooth="yes"/>
      <point x="96" y="268" type="line" smooth="yes"/>
      <point x="96" y="413"/>
      <point x="215" y="532"/>
      <point x="360" y="532" type="curve" smooth="yes"/>
      <point x="505" y="532"/>
      <point x="624" y="413"/>
      <point x="624" y="268" type="curve" smooth="yes"/>
      <point x="624" y="108" type="line" smooth="yes"/>
      <point x="624" y="40"/>
      <point x="678" y="-16"/>
    </contour>
  </outline>
</glyph>
<glyph name="asterisk" format="1">
  <advance width="366.0"/>
  <unicode hex="002A"/>
  <outline>
    <contour>
      <point x="198" y="1200" type="line" smooth="yes"/>
      <point x="198" y="1209"/>
      <point x="191" y="1216"/>
      <point x="182" y="1216" type="curve" smooth="yes"/>
      <point x="173" y="1216"/>
      <point x="166" y="1209"/>
      <point x="166" y="1200" type="curve" smooth="yes"/>
      <point x="166" y="960" type="line" smooth="yes"/>
      <point x="166" y="951"/>
      <point x="173" y="944"/>
      <point x="182" y="944" type="curve" smooth="yes"/>
      <point x="191" y="944"/>
      <point x="198" y="951"/>
      <point x="198" y="960" type="curve" smooth="yes"/>
    </contour>
    <contour>
      <point x="86" y="1154" type="line" smooth="yes"/>
      <point x="79" y="1158"/>
      <point x="68" y="1155"/>
      <point x="64" y="1148" type="curve" smooth="yes"/>
      <point x="60" y="1141"/>
      <point x="63" y="1130"/>
      <point x="70" y="1126" type="curve" smooth="yes"/>
      <point x="278" y="1006" type="line" smooth="yes"/>
      <point x="285" y="1002"/>
      <point x="296" y="1005"/>
      <point x="300" y="1012" type="curve" smooth="yes"/>
      <point x="304" y="1019"/>
      <point x="301" y="1030"/>
      <point x="294" y="1034" type="curve" smooth="yes"/>
    </contour>
    <contour>
      <point x="294" y="1126" type="line" smooth="yes"/>
      <point x="301" y="1130"/>
      <point x="304" y="1141"/>
      <point x="300" y="1148" type="curve" smooth="yes"/>
      <point x="296" y="1155"/>
      <point x="285" y="1158"/>
      <point x="278" y="1154" type="curve" smooth="yes"/>
      <point x="70" y="1034" type="line" smooth="yes"/>
      <point x="63" y="1030"/>
      <point x="60" y="1019"/>
      <point x="64" y="1012" type="curve" smooth="yes"/>
      <point x="68" y="1005"/>
      <point x="79" y="1002"/>
      <point x="86" y="1006" type="curve" smooth="yes"/>
    </contour>
  </outline>
</glyph>
<glyph name="comma" format="1">
  <advance width="204.0"/>
  <unicode hex="002C"/>
  <outline>
    <contour>
      <point x="61" y="-63"/>
      <point x="69" y="-71"/>
      <point x="79" y="-71" type="curve" smooth="yes"/>
      <point x="85" y="-71"/>
      <point x="92" y="-67"/>
      <point x="94" y="-62" type="curve"/>
      <point x="122" y="14" type="line" smooth="yes"/>
      <point x="123" y="16"/>
      <point x="123" y="19"/>
      <point x="123" y="21" type="curve" smooth="yes"/>
      <point x="123" y="32"/>
      <point x="113" y="44"/>
      <point x="100" y="44" type="curve" smooth="yes"/>
      <point x="90" y="44"/>
      <point x="78" y="36"/>
      <point x="76" y="26" type="curve"/>
      <point x="63" y="-53"/>
      <point x="62" y="-55"/>
      <point x="62" y="-55" type="curve" smooth="yes"/>
    </contour>
  </outline>
</glyph>
<glyph name="zero" format="1">
  <advance width="952"/>
  <unicode hex="0030"/>
  <outline>
    <contour>
      <point x="872" y="820" type="line" smooth="yes"/>
      <point x="872" y="1038"/>
      <point x="694" y="1216"/>
      <point x="476" y="1216" type="curve" smooth="yes"/>
      <point x="258" y="1216"/>
      <point x="80" y="1038"/>
      <point x="80" y="820" type="curve" smooth="yes"/>
      <point x="80" y="378" type="line" smooth="yes"/>
      <point x="80" y="160"/>
      <point x="258" y="-16"/>
      <point x="476" y="-16" type="curve" smooth="yes"/>
      <point x="694" y="-16"/>
      <point x="872" y="160"/>
      <point x="872" y="378" type="curve" smooth="yes"/>
    </contour>
    <contour>
      <point x="840" y="820" type="curve" smooth="yes"/>
      <point x="840" y="378" type="line" smooth="yes"/>
      <point x="840" y="178"/>
      <point x="676" y="16"/>
      <point x="476" y="16" type="curve" smooth="yes"/>
      <point x="276" y="16"/>
      <point x="112" y="178"/>
      <point x="112" y="378" type="curve" smooth="yes"/>
      <point x="112" y="820" type="line" smooth="yes"/>
      <point x="112" y="1020"/>
      <point x="276" y="1184"/>
      <point x="476" y="1184" type="curve" smooth="yes"/>
      <point x="676" y="1184"/>
      <point x="840" y="1020"/>
    </contour>
    <contour>
      <point x="92" y="418" type="line" smooth="yes"/>
      <point x="84" y="414"/>
      <point x="81" y="404"/>
      <point x="85" y="397" type="curve" smooth="yes"/>
      <point x="89" y="389"/>
      <point x="99" y="386"/>
      <point x="106" y="390" type="curve" smooth="yes"/>
      <point x="860" y="782" type="line" smooth="yes"/>
      <point x="868" y="786"/>
      <point x="871" y="796"/>
      <point x="867" y="803" type="curve" smooth="yes"/>
      <point x="863" y="811"/>
      <point x="853" y="814"/>
      <point x="846" y="810" type="curve" smooth="yes"/>
    </contour>
  </outline>
</glyph>
<glyph name="eight" format="1">
  <advance width="952"/>
  <unicode hex="0038"/>
  <outline>
    <contour>
      <point x="590" y="640" type="curve" smooth="yes"/>
      <point x="582" y="638"/>
      <point x="576" y="630"/>
      <point x="577" y="621" type="curve" smooth="yes"/>
      <point x="579" y="613"/>
      <point x="587" y="607"/>
      <point x="596" y="608" type="curve" smooth="yes"/>
      <point x="740" y="631"/>
      <point x="852" y="758"/>
      <point x="852" y="909" type="curve" smooth="yes"/>
      <point x="852" y="911" type="line" smooth="yes"/>
      <point x="852" y="1079"/>
      <point x="715" y="1216"/>
      <point x="547" y="1216" type="curve" smooth="yes"/>
      <point x="547" y="1216"/>
      <point x="405" y="1216"/>
      <point x="405" y="1216" type="curve" smooth="yes"/>
      <point x="237" y="1216"/>
      <point x="100" y="1079"/>
      <point x="100" y="911" type="curve" smooth="yes"/>
      <point x="100" y="909" type="line" smooth="yes"/>
      <point x="100" y="741"/>
      <point x="237" y="604"/>
      <point x="405" y="604" type="curve" smooth="yes"/>
      <point x="547" y="604" type="line" smooth="yes"/>
      <point x="708" y="604"/>
      <point x="840" y="472"/>
      <point x="840" y="311" type="curve" smooth="yes"/>
      <point x="840" y="309" type="line" smooth="yes"/>
      <point x="840" y="148"/>
      <point x="708" y="16"/>
      <point x="547" y="16" type="curve" smooth="yes"/>
      <point x="405" y="16" type="line" smooth="yes"/>
      <point x="244" y="16"/>
      <point x="112" y="148"/>
      <point x="112" y="309" type="curve" smooth="yes"/>
      <point x="112" y="311" type="line" smooth="yes"/>
      <point x="112" y="461"/>
      <point x="226" y="585"/>
      <point x="371" y="602" type="curve" smooth="yes"/>
      <point x="379" y="603"/>
      <point x="386" y="611"/>
      <point x="385" y="620" type="curve" smooth="yes"/>
      <point x="384" y="628"/>
      <point x="376" y="635"/>
      <point x="367" y="634" type="curve" smooth="yes"/>
      <point x="206" y="615"/>
      <point x="80" y="477"/>
      <point x="80" y="311" type="curve" smooth="yes"/>
      <point x="80" y="309" type="line" smooth="yes"/>
      <point x="80" y="130"/>
      <point x="226" y="-16"/>
      <point x="405" y="-16" type="curve" smooth="yes"/>
      <point x="547" y="-16" type="line" smooth="yes"/>
      <point x="726" y="-16"/>
      <point x="872" y="130"/>
      <point x="872" y="309" type="curve" smooth="yes"/>
      <point x="872" y="311" type="line" smooth="yes"/>
      <point x="872" y="490"/>
      <point x="726" y="636"/>
      <point x="547" y="636" type="curve" smooth="yes"/>
      <point x="405" y="636" type="line" smooth="yes"/>
      <point x="255" y="636"/>
      <point x="132" y="759"/>
      <point x="132" y="909" type="curve" smooth="yes"/>
      <point x="132" y="911" type="line" smooth="yes"/>
      <point x="132" y="1061"/>
      <point x="255" y="1184"/>
      <point x="405" y="1184" type="curve" smooth="yes"/>
      <point x="405" y="1184"/>
      <point x="547" y="1184"/>
      <point x="547" y="1184" type="curve" smooth="yes"/>
      <point x="697" y="1184"/>
      <point x="820" y="1061"/>
      <point x="820" y="911" type="curve" smooth="yes"/>
      <point x="820" y="909" type="line" smooth="yes"/>
      <point x="820" y="774"/>
      <point x="720" y="661"/>
    </contour>
  </outline>
</glyph>
<glyph name="nine" format="1">
  <advance width="952"/>
  <unicode hex="0039"/>
  <outline>
    <contour>
      <point x="112" y="380" type="curve" smooth="yes"/>
      <point x="112" y="389"/>
      <point x="105" y="396"/>
      <point x="96" y="396" type="curve" smooth="yes"/>
      <point x="87" y="396"/>
      <point x="80" y="389"/>
      <point x="80" y="380" type="curve" smooth="yes"/>
      <point x="80" y="162"/>
      <point x="258" y="-16"/>
      <point x="476" y="-16" type="curve" smooth="yes"/>
      <point x="694" y="-16"/>
      <point x="872" y="162"/>
      <point x="872" y="380" type="curve" smooth="yes"/>
      <point x="872" y="822" type="line" smooth="yes"/>
      <point x="872" y="1040"/>
      <point x="694" y="1216"/>
      <point x="476" y="1216" type="curve" smooth="yes"/>
      <point x="258" y="1216"/>
      <point x="80" y="1040"/>
      <point x="80" y="822" type="curve" smooth="yes"/>
      <point x="80" y="750" type="line" smooth="yes"/>
      <point x="80" y="532"/>
      <point x="258" y="354"/>
      <point x="476" y="354" type="curve" smooth="yes"/>
      <point x="679" y="354"/>
      <point x="848" y="509"/>
      <point x="870" y="707" type="curve" smooth="yes"/>
      <point x="871" y="716"/>
      <point x="864" y="724"/>
      <point x="856" y="725" type="curve" smooth="yes"/>
      <point x="847" y="726"/>
      <point x="839" y="719"/>
      <point x="838" y="711" type="curve" smooth="yes"/>
      <point x="818" y="529"/>
      <point x="663" y="386"/>
      <point x="476" y="386" type="curve" smooth="yes"/>
      <point x="276" y="386"/>
      <point x="112" y="550"/>
      <point x="112" y="750" type="curve" smooth="yes"/>
      <point x="112" y="822" type="line" smooth="yes"/>
      <point x="112" y="1022"/>
      <point x="276" y="1184"/>
      <point x="476" y="1184" type="curve" smooth="yes"/>
      <point x="676" y="1184"/>
      <point x="840" y="1022"/>
      <point x="840" y="822" type="curve" smooth="yes"/>
      <point x="840" y="380" type="line" smooth="yes"/>
      <point x="840" y="180"/>
      <point x="676" y="16"/>
      <point x="476" y="16" type="curve" smooth="yes"/>
      <point x="276" y="16"/>
      <point x="112" y="180"/>
    </contour>
  </outline>
</glyph>
<glyph name="equal" format="1">
  <advance width="952"/>
  <unicode hex="003D"/>
  <outline>
    <contour>
      <point x="726" y="286" type="line" smooth="yes"/>
      <point x="735" y="286"/>
      <point x="742" y="293"/>
      <point x="742" y="302" type="curve" smooth="yes"/>
      <point x="742" y="311"/>
      <point x="735" y="318"/>
      <point x="726" y="318" type="curve" smooth="yes"/>
      <point x="226" y="318" type="line" smooth="yes"/>
      <point x="217" y="318"/>
      <point x="210" y="311"/>
      <point x="210" y="302" type="curve" smooth="yes"/>
      <point x="210" y="293"/>
      <point x="217" y="286"/>
      <point x="226" y="286" type="curve" smooth="yes"/>
    </contour>
    <contour>
      <point x="726" y="526" type="line" smooth="yes"/>
      <point x="735" y="526"/>
      <point x="742" y="533"/>
      <point x="742" y="542" type="curve" smooth="yes"/>
      <point x="742" y="551"/>
      <point x="735" y="558"/>
      <point x="726" y="558" type="curve" smooth="yes"/>
      <point x="226" y="558" type="line" smooth="yes"/>
      <point x="217" y="558"/>
      <point x="210" y="551"/>
      <point x="210" y="542" type="curve" smooth="yes"/>
      <point x="210" y="533"/>
      <point x="217" y="526"/>
      <point x="226" y="526" type="curve" smooth="yes"/>
    </contour>
  </outline>
</glyph>
<glyph name="greater" format="1">
  <advance width="791.25"/>
  <unicode hex="003E"/>
  <outline>
    <contour>
      <point x="103" y="861" type="line" smooth="yes"/>
      <point x="96" y="866"/>
      <point x="86" y="864"/>
      <point x="81" y="857" type="curve" smooth="yes"/>
      <point x="76" y="850"/>
      <point x="78" y="840"/>
      <point x="85" y="835" type="curve" smooth="yes"/>
      <point x="689" y="413" type="line"/>
      <point x="689" y="439" type="line"/>
      <point x="83" y="15" type="line" smooth="yes"/>
      <point x="76" y="10"/>
      <point x="74" y="0"/>
      <point x="79" y="-7" type="curve" smooth="yes"/>
      <point x="84" y="-14"/>
      <point x="94" y="-16"/>
      <point x="101" y="-11" type="curve" smooth="yes"/>
      <point x="707" y="413" type="line" smooth="yes"/>
      <point x="718" y="420"/>
      <point x="718" y="432"/>
      <point x="707" y="439" type="curve" smooth="yes"/>
    </contour>
  </outline>
</glyph>
<glyph name="at" format="1">
  <advance width="1311"/>
  <unicode hex="0040"/>
  <outline>
    <contour>
      <point x="1045" y="581" type="curve" smooth="yes"/>
      <point x="1045" y="590"/>
      <point x="1038" y="597"/>
      <point x="1029" y="597" type="curve" smooth="yes"/>
      <point x="1020" y="597"/>
      <point x="1013" y="590"/>
      <point x="1013" y="581" type="curve" smooth="yes"/>
      <point x="1013" y="395"/>
      <point x="860" y="242"/>
      <point x="674" y="242" type="curve" smooth="yes"/>
      <point x="488" y="242"/>
      <point x="335" y="395"/>
      <point x="335" y="581" type="curve" smooth="yes"/>
      <point x="335" y="605" type="line" smooth="yes"/>
      <point x="335" y="791"/>
      <point x="488" y="944"/>
      <point x="674" y="944" type="curve" smooth="yes"/>
      <point x="860" y="944"/>
      <point x="1013" y="801"/>
      <point x="1013" y="615" type="curve" smooth="yes"/>
      <point x="1013" y="438" type="line" smooth="yes"/>
      <point x="1013" y="369"/>
      <point x="1070" y="312"/>
      <point x="1139" y="312" type="curve" smooth="yes"/>
      <point x="1209" y="312"/>
      <point x="1265" y="369"/>
      <point x="1265" y="438" type="curve" smooth="yes"/>
      <point x="1265" y="624" type="line" smooth="yes"/>
      <point x="1265" y="950"/>
      <point x="999" y="1216"/>
      <point x="673" y="1216" type="curve" smooth="yes"/>
      <point x="346" y="1216"/>
      <point x="80" y="950"/>
      <point x="80" y="624" type="curve" smooth="yes"/>
      <point x="80" y="561" type="line" smooth="yes"/>
      <point x="80" y="234"/>
      <point x="346" y="-32"/>
      <point x="673" y="-32" type="curve" smooth="yes"/>
      <point x="821" y="-32"/>
      <point x="956" y="22"/>
      <point x="1060" y="113" type="curve" smooth="yes"/>
      <point x="1067" y="119"/>
      <point x="1068" y="129"/>
      <point x="1062" y="135" type="curve" smooth="yes"/>
      <point x="1056" y="142"/>
      <point x="1046" y="143"/>
      <point x="1040" y="137" type="curve" smooth="yes"/>
      <point x="940" y="52"/>
      <point x="813" y="0"/>
      <point x="673" y="0" type="curve" smooth="yes"/>
      <point x="364" y="0"/>
      <point x="112" y="252"/>
      <point x="112" y="561" type="curve" smooth="yes"/>
      <point x="112" y="624" type="line" smooth="yes"/>
      <point x="112" y="932"/>
      <point x="364" y="1184"/>
      <point x="673" y="1184" type="curve" smooth="yes"/>
      <point x="981" y="1184"/>
      <point x="1233" y="932"/>
      <point x="1233" y="624" type="curve" smooth="yes"/>
      <point x="1233" y="438" type="line" smooth="yes"/>
      <point x="1233" y="387"/>
      <point x="1191" y="344"/>
      <point x="1139" y="344" type="curve" smooth="yes"/>
      <point x="1088" y="344"/>
      <point x="1045" y="387"/>
      <point x="1045" y="438" type="curve" smooth="yes"/>
      <point x="1045" y="615" type="line" smooth="yes"/>
      <point x="1045" y="819"/>
      <point x="878" y="976"/>
      <point x="674" y="976" type="curve" smooth="yes"/>
      <point x="470" y="976"/>
      <point x="303" y="809"/>
      <point x="303" y="605" type="curve" smooth="yes"/>
      <point x="303" y="581" type="line" smooth="yes"/>
      <point x="303" y="377"/>
      <point x="470" y="210"/>
      <point x="674" y="210" type="curve" smooth="yes"/>
      <point x="878" y="210"/>
      <point x="1045" y="377"/>
    </contour>
  </outline>
</glyph>
<glyph name="B" format="1">
  <advance width="1328.0"/>
  <unicode hex="0042"/>
  <outline>
    <contour>
      <point x="109" y="637" type="line"/>
      <point x="109" y="669" type="line"/>
      <point x="927" y="669" type="line" smooth="yes"/>
      <point x="1112" y="669"/>
      <point x="1248" y="533"/>
      <point x="1248" y="348" type="curve" smooth="yes"/>
      <point x="1248" y="163"/>
      <point x="1111" y="0"/>
      <point x="927" y="0" type="curve" smooth="yes"/>
      <point x="96" y="0" type="line" smooth="yes"/>
      <point x="87" y="0"/>
      <point x="80" y="7"/>
      <point x="80" y="16" type="curve" smooth="yes"/>
      <point x="80" y="1184" type="line" smooth="yes"/>
      <point x="80" y="1193"/>
      <point x="87" y="1200"/>
      <point x="96" y="1200" type="curve" smooth="yes"/>
      <point x="827" y="1200" type="line" smooth="yes"/>
      <point x="979" y="1200"/>
      <point x="1089" y="1090"/>
      <point x="1089" y="938" type="curve" smooth="yes"/>
      <point x="1089" y="925" type="line" smooth="yes"/>
      <point x="1089" y="773"/>
      <point x="978" y="637"/>
      <point x="827" y="637" type="curve" smooth="yes"/>
    </contour>
    <contour>
      <point x="109" y="669" type="line"/>
      <point x="827" y="669" type="line" smooth="yes"/>
      <point x="962" y="669"/>
      <point x="1057" y="791"/>
      <point x="1057" y="925" type="curve" smooth="yes"/>
      <point x="1057" y="938" type="line" smooth="yes"/>
      <point x="1057" y="1072"/>
      <point x="961" y="1168"/>
      <point x="827" y="1168" type="curve" smooth="yes"/>
      <point x="96" y="1168" type="line"/>
      <point x="112" y="1184" type="line"/>
      <point x="112" y="16" type="line"/>
      <point x="96" y="32" type="line"/>
      <point x="927" y="32" type="line" smooth="yes"/>
      <point x="1095" y="32"/>
      <point x="1216" y="181"/>
      <point x="1216" y="348" type="curve" smooth="yes"/>
      <point x="1216" y="515"/>
      <point x="1094" y="637"/>
      <point x="927" y="637" type="curve" smooth="yes"/>
      <point x="109" y="637" type="line"/>
    </contour>
  </outline>
</glyph>
<glyph name="J" format="1">
  <advance width="1345"/>
  <unicode hex="004A"/>
  <outline>
    <contour>
      <point x="112" y="561" type="curve" smooth="yes"/>
      <point x="112" y="570"/>
      <point x="105" y="577"/>
      <point x="96" y="577" type="curve" smooth="yes"/>
      <point x="87" y="577"/>
      <point x="80" y="570"/>
      <point x="80" y="561" type="curve" smooth="yes"/>
      <point x="80" y="234"/>
      <point x="346" y="-32"/>
      <point x="673" y="-32" type="curve" smooth="yes"/>
      <point x="999" y="-32"/>
      <point x="1265" y="234"/>
      <point x="1265" y="561" type="curve" smooth="yes"/>
      <point x="1265" y="1184" type="line" smooth="yes"/>
      <point x="1265" y="1193"/>
      <point x="1258" y="1200"/>
      <point x="1249" y="1200" type="curve" smooth="yes"/>
      <point x="672" y="1200" type="line" smooth="yes"/>
      <point x="663" y="1200"/>
      <point x="656" y="1193"/>
      <point x="656" y="1184" type="curve" smooth="yes"/>
      <point x="656" y="1175"/>
      <point x="663" y="1168"/>
      <point x="672" y="1168" type="curve" smooth="yes"/>
      <point x="1249" y="1168" type="line"/>
      <point x="1233" y="1184" type="line"/>
      <point x="1233" y="561" type="line" smooth="yes"/>
      <point x="1233" y="252"/>
      <point x="981" y="0"/>
      <point x="673" y="0" type="curve" smooth="yes"/>
      <point x="364" y="0"/>
      <point x="112" y="252"/>
    </contour>
  </outline>
</glyph>
<glyph name="T" format="1">
  <advance width="1328"/>
  <unicode hex="0054"/>
  <outline>
    <contour>
      <point x="88" y="1200" type="line" smooth="yes"/>
      <point x="79" y="1200"/>
      <point x="72" y="1193"/>
      <point x="72" y="1184" type="curve" smooth="yes"/>
      <point x="72" y="1175"/>
      <point x="79" y="1168"/>
      <point x="88" y="1168" type="curve" smooth="yes"/>
      <point x="1240" y="1168" type="line" smooth="yes"/>
      <point x="1249" y="1168"/>
      <point x="1256" y="1175"/>
      <point x="1256" y="1184" type="curve" smooth="yes"/>
      <point x="1256" y="1193"/>
      <point x="1249" y="1200"/>
      <point x="1240" y="1200" type="curve" smooth="yes"/>
    </contour>
    <contour>
      <point x="680" y="1174" type="line" smooth="yes"/>
      <point x="680" y="1183"/>
      <point x="673" y="1190"/>
      <point x="664" y="1190" type="curve" smooth="yes"/>
      <point x="655" y="1190"/>
      <point x="648" y="1183"/>
      <point x="648" y="1174" type="curve" smooth="yes"/>
      <point x="648" y="16" type="line" smooth="yes"/>
      <point x="648" y="7"/>
      <point x="655" y="0"/>
      <point x="664" y="0" type="curve" smooth="yes"/>
      <point x="673" y="0"/>
      <point x="680" y="7"/>
      <point x="680" y="16" type="curve" smooth="yes"/>
    </contour>
  </outline>
</glyph>
<glyph name="bracketleft" format="1">
  <advance width="474"/>
  <unicode hex="005B"/>
  <outline>
    <contour>
      <point x="398" y="1200" type="line" smooth="yes"/>
      <point x="407" y="1200"/>
      <point x="414" y="1207"/>
      <point x="414" y="1216" type="curve" smooth="yes"/>
      <point x="414" y="1225"/>
      <point x="407" y="1232"/>
      <point x="398" y="1232" type="curve" smooth="yes"/>
      <point x="136" y="1232" type="line" smooth="yes"/>
      <point x="127" y="1232"/>
      <point x="120" y="1225"/>
      <point x="120" y="1216" type="curve" smooth="yes"/>
      <point x="120" y="-16" type="line" smooth="yes"/>
      <point x="120" y="-25"/>
      <point x="127" y="-32"/>
      <point x="136" y="-32" type="curve" smooth="yes"/>
      <point x="398" y="-32" type="line" smooth="yes"/>
      <point x="407" y="-32"/>
      <point x="414" y="-25"/>
      <point x="414" y="-16" type="curve" smooth="yes"/>
      <point x="414" y="-7"/>
      <point x="407" y="0"/>
      <point x="398" y="0" type="curve" smooth="yes"/>
      <point x="136" y="0" type="line"/>
      <point x="152" y="-16" type="line"/>
      <point x="152" y="1216" type="line"/>
      <point x="136" y="1200" type="line"/>
    </contour>
  </outline>
</glyph>
<glyph name="asciicircum" format="1">
  <advance width="624.0"/>
  <unicode hex="005E"/>
  <outline>
    <contour>
      <point x="140" y="1228" type="line" smooth="yes"/>
      <point x="134" y="1222"/>
      <point x="134" y="1212"/>
      <point x="140" y="1206" type="curve" smooth="yes"/>
      <point x="146" y="1200"/>
      <point x="156" y="1200"/>
      <point x="162" y="1206" type="curve" smooth="yes"/>
      <point x="323" y="1369" type="line"/>
      <point x="301" y="1369" type="line"/>
      <point x="462" y="1206" type="line" smooth="yes"/>
      <point x="468" y="1200"/>
      <point x="478" y="1200"/>
      <point x="484" y="1206" type="curve" smooth="yes"/>
      <point x="490" y="1212"/>
      <point x="490" y="1222"/>
      <point x="484" y="1228" type="curve" smooth="yes"/>
      <point x="323" y="1391" type="line" smooth="yes"/>
      <point x="317" y="1398"/>
      <point x="307" y="1398"/>
      <point x="301" y="1391" type="curve" smooth="yes"/>
    </contour>
  </outline>
</glyph>
<glyph name="underscore" format="1">
  <advance width="1000"/>
  <unicode hex="005F"/>
  <outline>
    <contour>
      <point x="904" y="-16" type="line" smooth="yes"/>
      <point x="913" y="-16"/>
      <point x="920" y="-9"/>
      <point x="920" y="0" type="curve" smooth="yes"/>
      <point x="920" y="9"/>
      <point x="913" y="16"/>
      <point x="904" y="16" type="curve" smooth="yes"/>
      <point x="96" y="16" type="line" smooth="yes"/>
      <point x="87" y="16"/>
      <point x="80" y="9"/>
      <point x="80" y="0" type="curve" smooth="yes"/>
      <point x="80" y="-9"/>
      <point x="87" y="-16"/>
      <point x="96" y="-16" type="curve" smooth="yes"/>
    </contour>
  </outline>
</glyph>
<glyph name="grave" format="1">
  <advance width="318.0"/>
  <unicode hex="0060"/>
  <outline>
    <contour>
      <point x="209" y="1267" type="line" smooth="yes"/>
      <point x="215" y="1261"/>
      <point x="225" y="1261"/>
      <point x="231" y="1267" type="curve" smooth="yes"/>
      <point x="237" y="1273"/>
      <point x="237" y="1283"/>
      <point x="231" y="1289" type="curve" smooth="yes"/>
      <point x="77" y="1441" type="line" smooth="yes"/>
      <point x="71" y="1447"/>
      <point x="61" y="1447"/>
      <point x="55" y="1441" type="curve" smooth="yes"/>
      <point x="49" y="1435"/>
      <point x="49" y="1425"/>
      <point x="55" y="1419" type="curve" smooth="yes"/>
    </contour>
  </outline>
</glyph>
<glyph name="b" format="1">
  <advance width="1094"/>
  <unicode hex="0062"/>
  <outline>
    <contour>
      <point x="80" y="482" type="curve" smooth="yes"/>
      <point x="80" y="473"/>
      <point x="87" y="466"/>
      <point x="96" y="466" type="curve" smooth="yes"/>
      <point x="105" y="466"/>
      <point x="112" y="473"/>
      <point x="112" y="482" type="curve" smooth="yes"/>
      <point x="112" y="721"/>
      <point x="308" y="917"/>
      <point x="547" y="917" type="curve" smooth="yes"/>
      <point x="786" y="917"/>
      <point x="982" y="721"/>
      <point x="982" y="482" type="curve" smooth="yes"/>
      <point x="982" y="451" type="line" smooth="yes"/>
      <point x="982" y="212"/>
      <point x="786" y="16"/>
      <point x="547" y="16" type="curve" smooth="yes"/>
      <point x="308" y="16"/>
      <point x="112" y="212"/>
      <point x="112" y="451" type="curve" smooth="yes"/>
      <point x="112" y="1200" type="line" smooth="yes"/>
      <point x="112" y="1209"/>
      <point x="105" y="1216"/>
      <point x="96" y="1216" type="curve" smooth="yes"/>
      <point x="87" y="1216"/>
      <point x="80" y="1209"/>
      <point x="80" y="1200" type="curve" smooth="yes"/>
      <point x="80" y="451" type="line" smooth="yes"/>
      <point x="80" y="194"/>
      <point x="290" y="-16"/>
      <point x="547" y="-16" type="curve" smooth="yes"/>
      <point x="804" y="-16"/>
      <point x="1014" y="194"/>
      <point x="1014" y="451" type="curve" smooth="yes"/>
      <point x="1014" y="482" type="line" smooth="yes"/>
      <point x="1014" y="739"/>
      <point x="804" y="949"/>
      <point x="547" y="949" type="curve" smooth="yes"/>
      <point x="290" y="949"/>
      <point x="80" y="739"/>
    </contour>
  </outline>
</glyph>
<glyph name="h" format="1">
  <advance width="1094"/>
  <unicode hex="0068"/>
  <outline>
    <contour>
      <point x="982" y="16" type="line" smooth="yes"/>
      <point x="982" y="7"/>
      <point x="989" y="0"/>
      <point x="998" y="0" type="curve" smooth="yes"/>
      <point x="1007" y="0"/>
      <point x="1014" y="7"/>
      <point x="1014" y="16" type="curve" smooth="yes"/>
      <point x="1014" y="482" type="line" smooth="yes"/>
      <point x="1014" y="739"/>
      <point x="804" y="949"/>
      <point x="547" y="949" type="curve" smooth="yes"/>
      <point x="318" y="949"/>
      <point x="126" y="782"/>
      <point x="87" y="564" type="curve" smooth="yes"/>
      <point x="86" y="555"/>
      <point x="92" y="547"/>
      <point x="100" y="545" type="curve" smooth="yes"/>
      <point x="109" y="544"/>
      <point x="117" y="550"/>
      <point x="119" y="558" type="curve" smooth="yes"/>
      <point x="154" y="762"/>
      <point x="334" y="917"/>
      <point x="547" y="917" type="curve" smooth="yes"/>
      <point x="786" y="917"/>
      <point x="982" y="721"/>
      <point x="982" y="482" type="curve" smooth="yes"/>
    </contour>
    <contour>
      <point x="112" y="1200" type="line" smooth="yes"/>
      <point x="112" y="1209"/>
      <point x="105" y="1216"/>
      <point x="96" y="1216" type="curve" smooth="yes"/>
      <point x="87" y="1216"/>
      <point x="80" y="1209"/>
      <point x="80" y="1200" type="curve" smooth="yes"/>
      <point x="80" y="16" type="line" smooth="yes"/>
      <point x="80" y="7"/>
      <point x="87" y="0"/>
      <point x="96" y="0" type="curve" smooth="yes"/>
      <point x="105" y="0"/>
      <point x="112" y="7"/>
      <point x="112" y="16" type="curve" smooth="yes"/>
    </contour>
  </outline>
</glyph>
<glyph name="r" format="1">
  <advance width="573"/>
  <unicode hex="0072"/>
  <outline>
    <contour>
      <point x="547" y="917" type="curve" smooth="yes"/>
      <point x="556" y="917"/>
      <point x="563" y="924"/>
      <point x="563" y="933" type="curve" smooth="yes"/>
      <point x="563" y="942"/>
      <point x="556" y="949"/>
      <point x="547" y="949" type="curve" smooth="yes"/>
      <point x="318" y="949"/>
      <point x="126" y="781"/>
      <point x="87" y="563" type="curve" smooth="yes"/>
      <point x="86" y="554"/>
      <point x="92" y="546"/>
      <point x="100" y="544" type="curve" smooth="yes"/>
      <point x="109" y="543"/>
      <point x="117" y="549"/>
      <point x="119" y="557" type="curve" smooth="yes"/>
      <point x="154" y="761"/>
      <point x="334" y="917"/>
    </contour>
    <contour>
      <point x="112" y="820" type="line" smooth="yes"/>
      <point x="112" y="829"/>
      <point x="105" y="836"/>
      <point x="96" y="836" type="curve" smooth="yes"/>
      <point x="87" y="836"/>
      <point x="80" y="829"/>
      <point x="80" y="820" type="curve" smooth="yes"/>
      <point x="80" y="16" type="line" smooth="yes"/>
      <point x="80" y="7"/>
      <point x="87" y="0"/>
      <point x="96" y="0" type="curve" smooth="yes"/>
      <point x="105" y="0"/>
      <point x="112" y="7"/>
      <point x="112" y="16" type="curve" smooth="yes"/>
    </contour>
  </outline>
</glyph>
<glyph name="s" format="1">
  <advance width="1095"/>
  <unicode hex="0073"/>
  <outline>
    <contour>
      <point x="112" y="232" type="curve" smooth="yes"/>
      <point x="112" y="241"/>
      <point x="105" y="248"/>
      <point x="96" y="248" type="curve" smooth="yes"/>
      <point x="87" y="248"/>
      <point x="80" y="241"/>
      <point x="80" y="232" type="curve" smooth="yes"/>
      <point x="80" y="95"/>
      <point x="191" y="-16"/>
      <point x="328" y="-16" type="curve" smooth="yes"/>
      <point x="767" y="-16" type="line" smooth="yes"/>
      <point x="904" y="-16"/>
      <point x="1015" y="95"/>
      <point x="1015" y="232" type="curve" smooth="yes"/>
      <point x="1015" y="237" type="line" smooth="yes"/>
      <point x="1015" y="374"/>
      <point x="904" y="485"/>
      <point x="767" y="485" type="curve" smooth="yes"/>
      <point x="328" y="485" type="line" smooth="yes"/>
      <point x="209" y="485"/>
      <point x="112" y="582"/>
      <point x="112" y="701" type="curve" smooth="yes"/>
      <point x="112" y="820"/>
      <point x="209" y="917"/>
      <point x="328" y="917" type="curve" smooth="yes"/>
      <point x="767" y="917" type="line" smooth="yes"/>
      <point x="886" y="917"/>
      <point x="983" y="820"/>
      <point x="983" y="701" type="curve" smooth="yes"/>
      <point x="983" y="692"/>
      <point x="990" y="685"/>
      <point x="999" y="685" type="curve" smooth="yes"/>
      <point x="1008" y="685"/>
      <point x="1015" y="692"/>
      <point x="1015" y="701" type="curve" smooth="yes"/>
      <point x="1015" y="838"/>
      <point x="904" y="949"/>
      <point x="767" y="949" type="curve" smooth="yes"/>
      <point x="328" y="949" type="line" smooth="yes"/>
      <point x="191" y="949"/>
      <point x="80" y="838"/>
      <point x="80" y="701" type="curve" smooth="yes"/>
      <point x="80" y="564"/>
      <point x="191" y="453"/>
      <point x="328" y="453" type="curve" smooth="yes"/>
      <point x="767" y="453" type="line" smooth="yes"/>
      <point x="886" y="453"/>
      <point x="983" y="356"/>
      <point x="983" y="237" type="curve" smooth="yes"/>
      <point x="983" y="232" type="line" smooth="yes"/>
      <point x="983" y="113"/>
      <point x="886" y="16"/>
      <point x="767" y="16" type="curve" smooth="yes"/>
      <point x="328" y="16" type="line" smooth="yes"/>
      <point x="209" y="16"/>
      <point x="112" y="113"/>
    </contour>
  </outline>
</glyph>
<glyph name="z" format="1">
  <advance width="1096"/>
  <unicode hex="007A"/>
  <outline>
    <contour>
      <point x="97" y="933" type="line" smooth="yes"/>
      <point x="88" y="933"/>
      <point x="81" y="926"/>
      <point x="81" y="917" type="curve" smooth="yes"/>
      <point x="81" y="908"/>
      <point x="88" y="901"/>
      <point x="97" y="901" type="curve" smooth="yes"/>
      <point x="999" y="901" type="line"/>
      <point x="988" y="928" type="line"/>
      <point x="86" y="27" type="line" smooth="yes"/>
      <point x="75" y="16"/>
      <point x="81" y="0"/>
      <point x="97" y="0" type="curve" smooth="yes"/>
      <point x="999" y="0" type="line" smooth="yes"/>
      <point x="1008" y="0"/>
      <point x="1015" y="7"/>
      <point x="1015" y="16" type="curve" smooth="yes"/>
      <point x="1015" y="25"/>
      <point x="1008" y="32"/>
      <point x="999" y="32" type="curve" smooth="yes"/>
      <point x="97" y="32" type="line"/>
      <point x="108" y="5" type="line"/>
      <point x="1010" y="906" type="line" smooth="yes"/>
      <point x="1021" y="917"/>
      <point x="1015" y="933"/>
      <point x="999" y="933" type="curve" smooth="yes"/>
    </contour>
  </outline>
</glyph>
<glyph name="asciitilde" format="1">
  <advance width="810.5"/>
  <unicode hex="007E"/>
  <outline>
    <contour>
      <point x="144" y="663" type="curve" smooth="yes"/>
      <point x="138" y="657"/>
      <point x="138" y="647"/>
      <point x="144" y="641" type="curve" smooth="yes"/>
      <point x="150" y="635"/>
      <point x="160" y="635"/>
      <point x="166" y="641" type="curve" smooth="yes"/>
      <point x="229" y="702"/>
      <point x="331" y="702"/>
      <point x="394" y="641" type="curve" smooth="yes"/>
      <point x="468" y="567"/>
      <point x="591" y="566"/>
      <point x="666" y="641" type="curve" smooth="yes"/>
      <point x="672" y="647"/>
      <point x="672" y="657"/>
      <point x="666" y="663" type="curve" smooth="yes"/>
      <point x="660" y="669"/>
      <point x="650" y="669"/>
      <point x="644" y="663" type="curve" smooth="yes"/>
      <point x="581" y="602"/>
      <point x="478" y="601"/>
      <point x="416" y="663" type="curve" smooth="yes"/>
      <point x="341" y="738"/>
      <point x="219" y="738"/>
    </contour>
  </outline>
</glyph>
<glyph name="currency" format="1">
  <advance width="1094"/>
  <unicode hex="00A4"/>
  <outline>
    <contour>
      <point x="80" y="451" type="line" smooth="yes"/>
      <point x="80" y="194"/>
      <point x="290" y="-16"/>
      <point x="547" y="-16" type="curve" smooth="yes"/>
      <point x="802" y="-16"/>
      <point x="1014" y="192"/>
      <point x="1014" y="451" type="curve" smooth="yes"/>
      <point x="1014" y="482" type="line" smooth="yes"/>
      <point x="1014" y="739"/>
      <point x="804" y="949"/>
      <point x="547" y="949" type="curve" smooth="yes"/>
      <point x="288" y="949"/>
      <point x="80" y="737"/>
      <point x="80" y="482" type="curve" smooth="yes"/>
    </contour>
    <contour>
      <point x="112" y="451" type="curve" smooth="yes"/>
      <point x="112" y="482" type="line" smooth="yes"/>
      <point x="112" y="719"/>
      <point x="306" y="917"/>
      <point x="547" y="917" type="curve" smooth="yes"/>
      <point x="786" y="917"/>
      <point x="982" y="721"/>
      <point x="982" y="482" type="curve" smooth="yes"/>
      <point x="982" y="451" type="line" smooth="yes"/>
      <point x="982" y="210"/>
      <point x="784" y="16"/>
      <point x="547" y="16" type="curve" smooth="yes"/>
      <point x="308" y="16"/>
      <point x="112" y="212"/>
    </contour>
    <contour>
      <point x="139" y="65" type="line" smooth="yes"/>
      <point x="133" y="59"/>
      <point x="133" y="49"/>
      <point x="139" y="43" type="curve" smooth="yes"/>
      <point x="145" y="37"/>
      <point x="155" y="37"/>
      <point x="161" y="43" type="curve" smooth="yes"/>
      <point x="239" y="121" type="line" smooth="yes"/>
      <point x="245" y="127"/>
      <point x="245" y="137"/>
      <point x="239" y="143" type="curve" smooth="yes"/>
      <point x="233" y="149"/>
      <point x="223" y="149"/>
      <point x="217" y="143" type="curve" smooth="yes"/>
    </contour>
    <contour>
      <point x="217" y="791" type="line" smooth="yes"/>
      <point x="223" y="785"/>
      <point x="233" y="785"/>
      <point x="239" y="791" type="curve" smooth="yes"/>
      <point x="245" y="797"/>
      <point x="245" y="807"/>
      <point x="239" y="813" type="curve" smooth="yes"/>
      <point x="162" y="890" type="line" smooth="yes"/>
      <point x="156" y="896"/>
      <point x="146" y="896"/>
      <point x="140" y="890" type="curve" smooth="yes"/>
      <point x="134" y="884"/>
      <point x="134" y="874"/>
      <point x="140" y="868" type="curve" smooth="yes"/>
    </contour>
    <contour>
      <point x="956" y="869" type="line" smooth="yes"/>
      <point x="962" y="875"/>
      <point x="962" y="885"/>
      <point x="956" y="891" type="curve" smooth="yes"/>
      <point x="950" y="897"/>
      <point x="940" y="897"/>
      <point x="934" y="891" type="curve" smooth="yes"/>
      <point x="856" y="813" type="line" smooth="yes"/>
      <point x="850" y="807"/>
      <point x="850" y="797"/>
      <point x="856" y="791" type="curve" smooth="yes"/>
      <point x="862" y="785"/>
      <point x="872" y="785"/>
      <point x="878" y="791" type="curve" smooth="yes"/>
    </contour>
    <contour>
      <point x="878" y="143" type="line" smooth="yes"/>
      <point x="872" y="149"/>
      <point x="862" y="149"/>
      <point x="856" y="143" type="curve" smooth="yes"/>
      <point x="850" y="137"/>
      <point x="850" y="127"/>
      <point x="856" y="121" type="curve" smooth="yes"/>
      <point x="934" y="42" type="line" smooth="yes"/>
      <point x="940" y="36"/>
      <point x="950" y="36"/>
      <point x="956" y="42" type="curve" smooth="yes"/>
      <point x="962" y="48"/>
      <point x="962" y="58"/>
      <point x="956" y="64" type="curve" smooth="yes"/>
    </contour>
  </outline>
</glyph>
<glyph name="registered" format="1">
  <advance width="1345"/>
  <unicode hex="00AE"/>
  <outline>
    <contour>
      <point x="366" y="225" type="line" smooth="yes"/>
      <point x="366" y="216"/>
      <point x="373" y="209"/>
      <point x="382" y="209" type="curve" smooth="yes"/>
      <point x="391" y="209"/>
      <point x="398" y="216"/>
      <point x="398" y="225" type="curve" smooth="yes"/>
      <point x="398" y="955" type="line"/>
      <point x="382" y="939" type="line"/>
      <point x="812" y="939" type="line" smooth="yes"/>
      <point x="958" y="939"/>
      <point x="1078" y="821"/>
      <point x="1078" y="675" type="curve" smooth="yes"/>
      <point x="1078" y="673" type="line" smooth="yes"/>
      <point x="1078" y="527"/>
      <point x="958" y="408"/>
      <point x="812" y="408" type="curve" smooth="yes"/>
      <point x="391" y="408" type="line" smooth="yes"/>
      <point x="382" y="408"/>
      <point x="375" y="401"/>
      <point x="375" y="392" type="curve" smooth="yes"/>
      <point x="375" y="383"/>
      <point x="382" y="376"/>
      <point x="391" y="376" type="curve" smooth="yes"/>
      <point x="812" y="376" type="line" smooth="yes"/>
      <point x="976" y="376"/>
      <point x="1110" y="509"/>
      <point x="1110" y="673" type="curve" smooth="yes"/>
      <point x="1110" y="675" type="line" smooth="yes"/>
      <point x="1110" y="839"/>
      <point x="976" y="971"/>
      <point x="812" y="971" type="curve" smooth="yes"/>
      <point x="382" y="971" type="line" smooth="yes"/>
      <point x="373" y="971"/>
      <point x="366" y="964"/>
      <point x="366" y="955" type="curve" smooth="yes"/>
    </contour>
    <contour>
      <point x="941" y="214" type="line" smooth="yes"/>
      <point x="947" y="208"/>
      <point x="958" y="207"/>
      <point x="964" y="213" type="curve" smooth="yes"/>
      <point x="970" y="219"/>
      <point x="971" y="230"/>
      <point x="965" y="236" type="curve" smooth="yes"/>
      <point x="808" y="399" type="line" smooth="yes"/>
      <point x="802" y="405"/>
      <point x="791" y="406"/>
      <point x="785" y="400" type="curve" smooth="yes"/>
      <point x="779" y="394"/>
      <point x="778" y="383"/>
      <point x="784" y="377" type="curve" smooth="yes"/>
    </contour>
    <component base="O"/>
  </outline>
</glyph>
<glyph name="macron" format="1">
  <advance width="366.0"/>
  <unicode hex="00AF"/>
  <outline>
    <contour>
      <point x="290" y="1302" type="line" smooth="yes"/>
      <point x="299" y="1302"/>
      <point x="306" y="1309"/>
      <point x="306" y="1318" type="curve" smooth="yes"/>
      <point x="306" y="1327"/>
      <point x="299" y="1334"/>
      <point x="290" y="1334" type="curve" smooth="yes"/>
      <point x="76" y="1334" type="line" smooth="yes"/>
      <point x="67" y="1334"/>
      <point x="60" y="1327"/>
      <point x="60" y="1318" type="curve" smooth="yes"/>
      <point x="60" y="1309"/>
      <point x="67" y="1302"/>
      <point x="76" y="1302" type="curve" smooth="yes"/>
    </contour>
  </outline>
</glyph>
<glyph name="degree" format="1">
  <advance width="438.0"/>
  <unicode hex="00B0"/>
  <note>
  </note>
  <outline>
    <contour>
      <point x="229" y="917" type="curve" smooth="yes"/>
      <point x="312" y="917"/>
      <point x="379" y="984"/>
      <point x="379" y="1067" type="curve" smooth="yes"/>
      <point x="379" y="1149"/>
      <point x="312" y="1216"/>
      <point x="229" y="1216" type="curve" smooth="yes"/>
      <point x="147" y="1216"/>
      <point x="80" y="1149"/>
      <point x="80" y="1067" type="curve" smooth="yes"/>
      <point x="80" y="984"/>
      <point x="147" y="917"/>
    </contour>
    <contour>
      <point x="229" y="949" type="curve" smooth="yes"/>
      <point x="165" y="949"/>
      <point x="112" y="1002"/>
      <point x="112" y="1067" type="curve" smooth="yes"/>
      <point x="112" y="1131"/>
      <point x="165" y="1184"/>
      <point x="229" y="1184" type="curve" smooth="yes"/>
      <point x="294" y="1184"/>
      <point x="347" y="1131"/>
      <point x="347" y="1067" type="curve" smooth="yes"/>
      <point x="347" y="1002"/>
      <point x="294" y="949"/>
    </contour>
  </outline>
</glyph>
<glyph name="two.sup" format="1">
  <advance width="577"/>
  <unicode hex="00B2"/>
  <outline>
    <contour>
      <point x="481" y="600" type="line" smooth="yes"/>
      <point x="490" y="600"/>
      <point x="497" y="607"/>
      <point x="497" y="616" type="curve" smooth="yes"/>
      <point x="497" y="625"/>
      <point x="490" y="632"/>
      <point x="481" y="632" type="curve" smooth="yes"/>
      <point x="96" y="632" type="line"/>
      <point x="112" y="616" type="line"/>
      <point x="112" y="625" type="line" smooth="yes"/>
      <point x="112" y="721"/>
      <point x="192" y="801"/>
      <point x="289" y="801" type="curve" smooth="yes"/>
      <point x="404" y="801"/>
      <point x="497" y="895"/>
      <point x="497" y="1010" type="curve" smooth="yes"/>
      <point x="497" y="1023" type="line" smooth="yes"/>
      <point x="497" y="1138"/>
      <point x="404" y="1232"/>
      <point x="289" y="1232" type="curve" smooth="yes"/>
      <point x="174" y="1232"/>
      <point x="80" y="1138"/>
      <point x="80" y="1023" type="curve" smooth="yes"/>
      <point x="80" y="1014"/>
      <point x="87" y="1007"/>
      <point x="96" y="1007" type="curve" smooth="yes"/>
      <point x="105" y="1007"/>
      <point x="112" y="1014"/>
      <point x="112" y="1023" type="curve" smooth="yes"/>
      <point x="112" y="1120"/>
      <point x="192" y="1200"/>
      <point x="289" y="1200" type="curve" smooth="yes"/>
      <point x="386" y="1200"/>
      <point x="465" y="1120"/>
      <point x="465" y="1023" type="curve" smooth="yes"/>
      <point x="465" y="1010" type="line" smooth="yes"/>
      <point x="465" y="913"/>
      <point x="386" y="833"/>
      <point x="289" y="833" type="curve" smooth="yes"/>
      <point x="174" y="833"/>
      <point x="80" y="739"/>
      <point x="80" y="625" type="curve" smooth="yes"/>
      <point x="80" y="616" type="line" smooth="yes"/>
      <point x="80" y="607"/>
      <point x="87" y="600"/>
      <point x="96" y="600" type="curve" smooth="yes"/>
    </contour>
  </outline>
</glyph>
<glyph name="three.sup" format="1">
  <advance width="582"/>
  <unicode hex="00B3"/>
  <outline>
    <contour>
      <point x="348" y="936" type="curve" smooth="yes"/>
      <point x="340" y="934"/>
      <point x="334" y="926"/>
      <point x="335" y="917" type="curve" smooth="yes"/>
      <point x="337" y="909"/>
      <point x="345" y="903"/>
      <point x="354" y="904" type="curve" smooth="yes"/>
      <point x="431" y="918"/>
      <point x="492" y="985"/>
      <point x="492" y="1067" type="curve" smooth="yes"/>
      <point x="492" y="1068" type="line" smooth="yes"/>
      <point x="492" y="1158"/>
      <point x="418" y="1232"/>
      <point x="328" y="1232" type="curve" smooth="yes"/>
      <point x="328" y="1232"/>
      <point x="255" y="1232"/>
      <point x="255" y="1232" type="curve" smooth="yes"/>
      <point x="164" y="1232"/>
      <point x="90" y="1158"/>
      <point x="90" y="1068" type="curve" smooth="yes"/>
      <point x="90" y="1059"/>
      <point x="97" y="1052"/>
      <point x="106" y="1052" type="curve" smooth="yes"/>
      <point x="115" y="1052"/>
      <point x="122" y="1059"/>
      <point x="122" y="1068" type="curve" smooth="yes"/>
      <point x="122" y="1140"/>
      <point x="182" y="1200"/>
      <point x="255" y="1200" type="curve" smooth="yes"/>
      <point x="255" y="1200"/>
      <point x="328" y="1200"/>
      <point x="328" y="1200" type="curve" smooth="yes"/>
      <point x="400" y="1200"/>
      <point x="460" y="1140"/>
      <point x="460" y="1068" type="curve" smooth="yes"/>
      <point x="460" y="1067" type="line" smooth="yes"/>
      <point x="460" y="1001"/>
      <point x="411" y="946"/>
    </contour>
    <contour>
      <point x="112" y="759" type="curve" smooth="yes"/>
      <point x="112" y="768"/>
      <point x="105" y="775"/>
      <point x="96" y="775" type="curve" smooth="yes"/>
      <point x="87" y="775"/>
      <point x="80" y="768"/>
      <point x="80" y="759" type="curve" smooth="yes"/>
      <point x="80" y="662"/>
      <point x="158" y="584"/>
      <point x="255" y="584" type="curve" smooth="yes"/>
      <point x="328" y="584" type="line" smooth="yes"/>
      <point x="424" y="584"/>
      <point x="502" y="662"/>
      <point x="502" y="759" type="curve" smooth="yes"/>
      <point x="502" y="760" type="line" smooth="yes"/>
      <point x="502" y="849"/>
      <point x="435" y="923"/>
      <point x="348" y="933" type="curve" smooth="yes"/>
      <point x="339" y="934"/>
      <point x="331" y="927"/>
      <point x="330" y="919" type="curve" smooth="yes"/>
      <point x="329" y="910"/>
      <point x="336" y="902"/>
      <point x="344" y="901" type="curve" smooth="yes"/>
      <point x="415" y="893"/>
      <point x="470" y="833"/>
      <point x="470" y="760" type="curve" smooth="yes"/>
      <point x="470" y="759" type="line" smooth="yes"/>
      <point x="470" y="680"/>
      <point x="406" y="616"/>
      <point x="328" y="616" type="curve" smooth="yes"/>
      <point x="255" y="616" type="line" smooth="yes"/>
      <point x="176" y="616"/>
      <point x="112" y="680"/>
    </contour>
  </outline>
</glyph>
<glyph name="paragraph" format="1">
  <advance width="672"/>
  <unicode hex="00B6"/>
  <outline>
    <contour>
      <point x="524" y="16" type="line" smooth="yes"/>
      <point x="524" y="7"/>
      <point x="531" y="0"/>
      <point x="540" y="0" type="curve" smooth="yes"/>
      <point x="549" y="0"/>
      <point x="556" y="7"/>
      <point x="556" y="16" type="curve" smooth="yes"/>
      <point x="556" y="1184" type="line" smooth="yes"/>
      <point x="556" y="1193"/>
      <point x="549" y="1200"/>
      <point x="540" y="1200" type="curve" smooth="yes"/>
      <point x="531" y="1200"/>
      <point x="524" y="1193"/>
      <point x="524" y="1184" type="curve" smooth="yes"/>
    </contour>
    <contour>
      <point x="434" y="16" type="line" smooth="yes"/>
      <point x="434" y="7"/>
      <point x="441" y="0"/>
      <point x="450" y="0" type="curve" smooth="yes"/>
      <point x="459" y="0"/>
      <point x="466" y="7"/>
      <point x="466" y="16" type="curve" smooth="yes"/>
      <point x="466" y="1184" type="line" smooth="yes"/>
      <point x="466" y="1193"/>
      <point x="459" y="1200"/>
      <point x="450" y="1200" type="curve" smooth="yes"/>
      <point x="441" y="1200"/>
      <point x="434" y="1193"/>
      <point x="434" y="1184" type="curve" smooth="yes"/>
    </contour>
    <contour>
      <point x="576" y="1184" type="line" smooth="yes"/>
      <point x="585" y="1184"/>
      <point x="592" y="1191"/>
      <point x="592" y="1200" type="curve" smooth="yes"/>
      <point x="592" y="1209"/>
      <point x="585" y="1216"/>
      <point x="576" y="1216" type="curve" smooth="yes"/>
      <point x="366" y="1216" type="line" smooth="yes"/>
      <point x="208" y="1216"/>
      <point x="80" y="1088"/>
      <point x="80" y="930" type="curve" smooth="yes"/>
      <point x="80" y="771"/>
      <point x="208" y="643"/>
      <point x="366" y="643" type="curve" smooth="yes"/>
      <point x="440" y="643" type="line" smooth="yes"/>
      <point x="449" y="643"/>
      <point x="456" y="650"/>
      <point x="456" y="659" type="curve" smooth="yes"/>
      <point x="456" y="668"/>
      <point x="449" y="675"/>
      <point x="440" y="675" type="curve" smooth="yes"/>
      <point x="366" y="675" type="line" smooth="yes"/>
      <point x="226" y="675"/>
      <point x="112" y="789"/>
      <point x="112" y="930" type="curve"/>
      <point x="112" y="1070"/>
      <point x="226" y="1184"/>
      <point x="366" y="1184" type="curve" smooth="yes"/>
    </contour>
  </outline>
</glyph>
<glyph name="questiondown" format="1">
  <advance width="1094"/>
  <unicode hex="00BF"/>
  <outline>
    <contour>
      <point x="547" y="1220" type="curve" smooth="yes"/>
      <point x="535" y="1220"/>
      <point x="523" y="1208"/>
      <point x="523" y="1196" type="curve" smooth="yes"/>
      <point x="523" y="1184"/>
      <point x="535" y="1172"/>
      <point x="547" y="1172" type="curve" smooth="yes"/>
      <point x="559" y="1172"/>
      <point x="571" y="1184"/>
      <point x="571" y="1196" type="curve" smooth="yes"/>
      <point x="571" y="1208"/>
      <point x="559" y="1220"/>
    </contour>
    <contour>
      <point x="563" y="1037" type="line" smooth="yes"/>
      <point x="563" y="1046"/>
      <point x="556" y="1053"/>
      <point x="547" y="1053" type="curve" smooth="yes"/>
      <point x="538" y="1053"/>
      <point x="531" y="1046"/>
      <point x="531" y="1037" type="curve" smooth="yes"/>
      <point x="531" y="933" type="line"/>
      <point x="547" y="949" type="line"/>
      <point x="290" y="949"/>
      <point x="80" y="739"/>
      <point x="80" y="482" type="curve" smooth="yes"/>
      <point x="80" y="451" type="line" smooth="yes"/>
      <point x="80" y="194"/>
      <point x="290" y="-16"/>
      <point x="547" y="-16" type="curve" smooth="yes"/>
      <point x="804" y="-16"/>
      <point x="1014" y="194"/>
      <point x="1014" y="451" type="curve" smooth="yes"/>
      <point x="1014" y="460"/>
      <point x="1007" y="467"/>
      <point x="998" y="467" type="curve" smooth="yes"/>
      <point x="989" y="467"/>
      <point x="982" y="460"/>
      <point x="982" y="451" type="curve" smooth="yes"/>
      <point x="982" y="212"/>
      <point x="786" y="16"/>
      <point x="547" y="16" type="curve" smooth="yes"/>
      <point x="308" y="16"/>
      <point x="112" y="212"/>
      <point x="112" y="451" type="curve" smooth="yes"/>
      <point x="112" y="482" type="line" smooth="yes"/>
      <point x="112" y="721"/>
      <point x="308" y="917"/>
      <point x="547" y="917" type="curve" smooth="yes"/>
      <point x="556" y="917"/>
      <point x="563" y="924"/>
      <point x="563" y="933" type="curve" smooth="yes"/>
    </contour>
  </outline>
</glyph>
<glyph name="multiply" format="1">
  <advance width="952"/>
  <unicode hex="00D7"/>
  <outline>
    <contour>
      <point x="244" y="173" type="curve" smooth="yes"/>
      <point x="729" y="657" type="line" smooth="yes"/>
      <point x="735" y="663"/>
      <point x="735" y="673"/>
      <point x="729" y="679" type="curve" smooth="yes"/>
      <point x="723" y="685"/>
      <point x="713" y="685"/>
      <point x="707" y="679" type="curve" smooth="yes"/>
      <point x="222" y="195" type="line" smooth="yes"/>
      <point x="216" y="189"/>
      <point x="216" y="179"/>
      <point x="222" y="173" type="curve" smooth="yes"/>
      <point x="228" y="167"/>
      <point x="238" y="167"/>
    </contour>
    <contour>
      <point x="223" y="657" type="curve" smooth="yes"/>
      <point x="708" y="173" type="line" smooth="yes"/>
      <point x="714" y="167"/>
      <point x="724" y="167"/>
      <point x="730" y="173" type="curve" smooth="yes"/>
      <point x="736" y="179"/>
      <point x="736" y="189"/>
      <point x="730" y="195" type="curve" smooth="yes"/>
      <point x="245" y="679" type="line" smooth="yes"/>
      <point x="239" y="685"/>
      <point x="229" y="685"/>
      <point x="223" y="679" type="curve" smooth="yes"/>
      <point x="217" y="673"/>
      <point x="217" y="663"/>
    </contour>
  </outline>
</glyph>
<glyph name="Thorn" format="1">
  <advance width="1247"/>
  <unicode hex="00DE"/>
  <outline>
    <contour>
      <point x="80" y="-160" type="line" smooth="yes"/>
      <point x="80" y="-169"/>
      <point x="87" y="-176"/>
      <point x="96" y="-176" type="curve" smooth="yes"/>
      <point x="105" y="-176"/>
      <point x="112" y="-169"/>
      <point x="112" y="-160" type="curve" smooth="yes"/>
      <point x="112" y="1200" type="line" smooth="yes"/>
      <point x="112" y="1209"/>
      <point x="105" y="1216"/>
      <point x="96" y="1216" type="curve" smooth="yes"/>
      <point x="87" y="1216"/>
      <point x="80" y="1209"/>
      <point x="80" y="1200" type="curve" smooth="yes"/>
    </contour>
    <contour>
      <point x="106" y="1108" type="line" smooth="yes"/>
      <point x="97" y="1108"/>
      <point x="90" y="1101"/>
      <point x="90" y="1092" type="curve" smooth="yes"/>
      <point x="90" y="1083"/>
      <point x="97" y="1076"/>
      <point x="106" y="1076" type="curve" smooth="yes"/>
      <point x="626" y="1076" type="line" smooth="yes"/>
      <point x="910" y="1076"/>
      <point x="1141" y="844"/>
      <point x="1141" y="561" type="curve" smooth="yes"/>
      <point x="1141" y="532" type="line" smooth="yes"/>
      <point x="1141" y="248"/>
      <point x="910" y="16"/>
      <point x="626" y="16" type="curve" smooth="yes"/>
      <point x="104" y="16" type="line" smooth="yes"/>
      <point x="95" y="16"/>
      <point x="88" y="9"/>
      <point x="88" y="0" type="curve" smooth="yes"/>
      <point x="88" y="-9"/>
      <point x="95" y="-16"/>
      <point x="104" y="-16" type="curve" smooth="yes"/>
      <point x="626" y="-16" type="line" smooth="yes"/>
      <point x="928" y="-16"/>
      <point x="1173" y="230"/>
      <point x="1173" y="532" type="curve" smooth="yes"/>
      <point x="1173" y="561" type="line" smooth="yes"/>
      <point x="1173" y="862"/>
      <point x="928" y="1108"/>
      <point x="626" y="1108" type="curve" smooth="yes"/>
    </contour>
  </outline>
</glyph>
<glyph name="eth" format="1">
  <advance width="1094"/>
  <unicode hex="00F0"/>
  <outline>
    <contour>
      <point x="894" y="1016" type="line" smooth="yes"/>
      <point x="886" y="1012"/>
      <point x="884" y="1001"/>
      <point x="888" y="994" type="curve" smooth="yes"/>
      <point x="892" y="986"/>
      <point x="903" y="984"/>
      <point x="910" y="988" type="curve" smooth="yes"/>
      <point x="1060" y="1075" type="line" smooth="yes"/>
      <point x="1068" y="1079"/>
      <point x="1070" y="1090"/>
      <point x="1066" y="1097" type="curve" smooth="yes"/>
      <point x="1062" y="1105"/>
      <point x="1051" y="1107"/>
      <point x="1044" y="1103" type="curve" smooth="yes"/>
    </contour>
    <component base="partialdiff"/>
    <component base="partialdiff"/>
  </outline>
</glyph>
<glyph name="Hbar" format="1">
  <advance width="1344"/>
  <unicode hex="0126"/>
  <outline>
    <contour>
      <point x="1318" y="978" type="line"/>
      <point x="1326" y="978"/>
      <point x="1334" y="986"/>
      <point x="1334" y="994" type="curve" smooth="yes"/>
      <point x="1334" y="1002"/>
      <point x="1326" y="1010"/>
      <point x="1318" y="1010" type="curve" smooth="yes"/>
      <point x="26" y="1010" type="line" smooth="yes"/>
      <point x="18" y="1010"/>
      <point x="10" y="1002"/>
      <point x="10" y="994" type="curve" smooth="yes"/>
      <point x="10" y="986"/>
      <point x="18" y="978"/>
      <point x="26" y="978" type="curve" smooth="yes"/>
    </contour>
    <component base="H"/>
  </outline>
</glyph>
<glyph name="kgreenlandic" format="1">
  <advance width="989.038671968"/>
  <unicode hex="0138"/>
  <outline>
    <contour>
      <point x="112" y="917" type="line" smooth="yes"/>
      <point x="112" y="926"/>
      <point x="105" y="933"/>
      <point x="96" y="933" type="curve" smooth="yes"/>
      <point x="87" y="933"/>
      <point x="80" y="926"/>
      <point x="80" y="917" type="curve" smooth="yes"/>
      <point x="80" y="16" type="line" smooth="yes"/>
      <point x="80" y="7"/>
      <point x="87" y="0"/>
      <point x="96" y="0" type="curve" smooth="yes"/>
      <point x="105" y="0"/>
      <point x="112" y="7"/>
      <point x="112" y="16" type="curve" smooth="yes"/>
    </contour>
    <contour>
      <point x="891" y="903" type="line" smooth="yes"/>
      <point x="898" y="907"/>
      <point x="901" y="917"/>
      <point x="897" y="925" type="curve" smooth="yes"/>
      <point x="893" y="932"/>
      <point x="883" y="935"/>
      <point x="875" y="931" type="curve" smooth="yes"/>
      <point x="99" y="498" type="line" smooth="yes"/>
      <point x="92" y="494"/>
      <point x="89" y="484"/>
      <point x="93" y="476" type="curve" smooth="yes"/>
      <point x="97" y="469"/>
      <point x="107" y="466"/>
      <point x="115" y="470" type="curve" smooth="yes"/>
    </contour>
    <contour>
      <point x="153" y="509" type="line" smooth="yes"/>
      <point x="145" y="513"/>
      <point x="135" y="511"/>
      <point x="130" y="504" type="curve" smooth="yes"/>
      <point x="126" y="496"/>
      <point x="128" y="486"/>
      <point x="135" y="481" type="curve" smooth="yes"/>
      <point x="892" y="2" type="line" smooth="yes"/>
      <point x="900" y="-2"/>
      <point x="910" y="0"/>
      <point x="915" y="7" type="curve" smooth="yes"/>
      <point x="919" y="15"/>
      <point x="917" y="25"/>
      <point x="910" y="30" type="curve" smooth="yes"/>
    </contour>
  </outline>
</glyph>
<glyph name="OE" format="1">
  <advance width="1686"/>
  <unicode hex="0152"/>
  <outline>
    <contour>
      <point x="1596" y="0" type="line" smooth="yes"/>
      <point x="1605" y="0"/>
      <point x="1612" y="7"/>
      <point x="1612" y="16" type="curve" smooth="yes"/>
      <point x="1612" y="25"/>
      <point x="1605" y="32"/>
      <point x="1596" y="32" type="curve" smooth="yes"/>
      <point x="1020" y="32" type="line"/>
      <point x="1036" y="16" type="line"/>
      <point x="1036" y="1184" type="line"/>
      <point x="1020" y="1168" type="line"/>
      <point x="1596" y="1168" type="line" smooth="yes"/>
      <point x="1605" y="1168"/>
      <point x="1612" y="1175"/>
      <point x="1612" y="1184" type="curve" smooth="yes"/>
      <point x="1612" y="1193"/>
      <point x="1605" y="1200"/>
      <point x="1596" y="1200" type="curve" smooth="yes"/>
      <point x="1020" y="1200" type="line" smooth="yes"/>
      <point x="1011" y="1200"/>
      <point x="1004" y="1193"/>
      <point x="1004" y="1184" type="curve" smooth="yes"/>
      <point x="1004" y="16" type="line" smooth="yes"/>
      <point x="1004" y="7"/>
      <point x="1011" y="0"/>
      <point x="1020" y="0" type="curve" smooth="yes"/>
    </contour>
    <contour>
      <point x="1022" y="563" type="line" smooth="yes"/>
      <point x="1013" y="563"/>
      <point x="1006" y="556"/>
      <point x="1006" y="547" type="curve" smooth="yes"/>
      <point x="1006" y="538"/>
      <point x="1013" y="531"/>
      <point x="1022" y="531" type="curve" smooth="yes"/>
      <point x="1303" y="531" type="line" smooth="yes"/>
      <point x="1312" y="531"/>
      <point x="1319" y="538"/>
      <point x="1319" y="547" type="curve" smooth="yes"/>
      <point x="1319" y="556"/>
      <point x="1312" y="563"/>
      <point x="1303" y="563" type="curve" smooth="yes"/>
    </contour>
    <contour>
      <point x="1002" y="1071" type="curve" smooth="yes"/>
      <point x="1009" y="1066"/>
      <point x="1020" y="1067"/>
      <point x="1025" y="1074" type="curve" smooth="yes"/>
      <point x="1030" y="1081"/>
      <point x="1029" y="1092"/>
      <point x="1022" y="1097" type="curve" smooth="yes"/>
      <point x="923" y="1172"/>
      <point x="800" y="1216"/>
      <point x="667" y="1216" type="curve" smooth="yes"/>
      <point x="340" y="1216"/>
      <point x="74" y="950"/>
      <point x="74" y="624" type="curve" smooth="yes"/>
      <point x="74" y="561" type="line" smooth="yes"/>
      <point x="74" y="234"/>
      <point x="340" y="-32"/>
      <point x="667" y="-32" type="curve" smooth="yes"/>
      <point x="801" y="-32"/>
      <point x="924" y="12"/>
      <point x="1024" y="88" type="curve" smooth="yes"/>
      <point x="1031" y="94"/>
      <point x="1032" y="104"/>
      <point x="1027" y="111" type="curve" smooth="yes"/>
      <point x="1021" y="118"/>
      <point x="1011" y="119"/>
      <point x="1004" y="114" type="curve" smooth="yes"/>
      <point x="910" y="42"/>
      <point x="793" y="0"/>
      <point x="667" y="0" type="curve" smooth="yes"/>
      <point x="358" y="0"/>
      <point x="106" y="252"/>
      <point x="106" y="561" type="curve" smooth="yes"/>
      <point x="106" y="624" type="line" smooth="yes"/>
      <point x="106" y="932"/>
      <point x="358" y="1184"/>
      <point x="667" y="1184" type="curve" smooth="yes"/>
      <point x="792" y="1184"/>
      <point x="909" y="1142"/>
    </contour>
  </outline>
</glyph>
<glyph name="oe" format="1">
  <advance width="1804"/>
  <unicode hex="0153"/>
  <outline>
    <contour>
      <point x="1587" y="122" type="curve" smooth="yes"/>
      <point x="1593" y="128"/>
      <point x="1593" y="138"/>
      <point x="1587" y="144" type="curve" smooth="yes"/>
      <point x="1581" y="150"/>
      <point x="1571" y="150"/>
      <point x="1565" y="144" type="curve" smooth="yes"/>
      <point x="1486" y="65"/>
      <point x="1377" y="16"/>
      <point x="1257" y="16" type="curve"/>
      <point x="1118" y="16"/>
      <point x="993" y="83"/>
      <point x="913" y="186" type="curve"/>
      <point x="913" y="747" type="line"/>
      <point x="993" y="850"/>
      <point x="1118" y="917"/>
      <point x="1257" y="917" type="curve" smooth="yes"/>
      <point x="1496" y="917"/>
      <point x="1692" y="721"/>
      <point x="1692" y="482" type="curve" smooth="yes"/>
      <point x="1692" y="466" type="line"/>
      <point x="1708" y="482" type="line"/>
      <point x="905" y="482" type="line" smooth="yes"/>
      <point x="896" y="482"/>
      <point x="889" y="475"/>
      <point x="889" y="466" type="curve" smooth="yes"/>
      <point x="889" y="457"/>
      <point x="896" y="450"/>
      <point x="905" y="450" type="curve" smooth="yes"/>
      <point x="1708" y="450" type="line" smooth="yes"/>
      <point x="1717" y="450"/>
      <point x="1724" y="457"/>
      <point x="1724" y="466" type="curve" smooth="yes"/>
      <point x="1724" y="482" type="line" smooth="yes"/>
      <point x="1724" y="739"/>
      <point x="1514" y="949"/>
      <point x="1257" y="949" type="curve" smooth="yes"/>
      <point x="1106" y="949"/>
      <point x="968" y="876"/>
      <point x="881" y="760" type="curve"/>
      <point x="881" y="173" type="line"/>
      <point x="968" y="57"/>
      <point x="1106" y="-16"/>
      <point x="1257" y="-16" type="curve"/>
      <point x="1385" y="-16"/>
      <point x="1502" y="37"/>
    </contour>
    <contour>
      <point x="885" y="756" type="curve" smooth="yes"/>
      <point x="890" y="749"/>
      <point x="900" y="748"/>
      <point x="907" y="754" type="curve" smooth="yes"/>
      <point x="914" y="759"/>
      <point x="915" y="769"/>
      <point x="909" y="776" type="curve" smooth="yes"/>
      <point x="823" y="882"/>
      <point x="693" y="949"/>
      <point x="547" y="949" type="curve" smooth="yes"/>
      <point x="290" y="949"/>
      <point x="80" y="739"/>
      <point x="80" y="482" type="curve" smooth="yes"/>
      <point x="80" y="451" type="line" smooth="yes"/>
      <point x="80" y="194"/>
      <point x="290" y="-16"/>
      <point x="547" y="-16" type="curve" smooth="yes"/>
      <point x="693" y="-16"/>
      <point x="823" y="51"/>
      <point x="909" y="157" type="curve" smooth="yes"/>
      <point x="915" y="164"/>
      <point x="914" y="174"/>
      <point x="907" y="179" type="curve" smooth="yes"/>
      <point x="900" y="185"/>
      <point x="890" y="184"/>
      <point x="885" y="177" type="curve" smooth="yes"/>
      <point x="805" y="79"/>
      <point x="683" y="16"/>
      <point x="547" y="16" type="curve" smooth="yes"/>
      <point x="308" y="16"/>
      <point x="112" y="212"/>
      <point x="112" y="451" type="curve" smooth="yes"/>
      <point x="112" y="482" type="line" smooth="yes"/>
      <point x="112" y="721"/>
      <point x="308" y="917"/>
      <point x="547" y="917" type="curve" smooth="yes"/>
      <point x="683" y="917"/>
      <point x="805" y="854"/>
    </contour>
  </outline>
</glyph>
<glyph name="dotlessj" format="1">
  <advance width="372.0"/>
  <unicode hex="0237"/>
  <outline>
    <contour>
      <point x="-17" y="-171" type="curve" smooth="yes"/>
      <point x="-26" y="-171"/>
      <point x="-33" y="-178"/>
      <point x="-33" y="-187" type="curve" smooth="yes"/>
      <point x="-33" y="-196"/>
      <point x="-26" y="-203"/>
      <point x="-17" y="-203" type="curve" smooth="yes"/>
      <point x="104" y="-203"/>
      <point x="202" y="-105"/>
      <point x="202" y="16" type="curve" smooth="yes"/>
      <point x="202" y="917" type="line" smooth="yes"/>
      <point x="202" y="926"/>
      <point x="195" y="933"/>
      <point x="186" y="933" type="curve" smooth="yes"/>
      <point x="177" y="933"/>
      <point x="170" y="926"/>
      <point x="170" y="917" type="curve" smooth="yes"/>
      <point x="170" y="16" type="line" smooth="yes"/>
      <point x="170" y="-87"/>
      <point x="86" y="-171"/>
    </contour>
  </outline>
</glyph>
<glyph name="ezh" format="1">
  <advance width="618"/>
  <unicode hex="0292"/>
  <outline>
    <contour>
      <point x="107" y="949" type="line" smooth="yes"/>
      <point x="98" y="949"/>
      <point x="91" y="942"/>
      <point x="91" y="933" type="curve" smooth="yes"/>
      <point x="91" y="924"/>
      <point x="98" y="917"/>
      <point x="107" y="917" type="curve" smooth="yes"/>
      <point x="531" y="917" type="line"/>
      <point x="518" y="942" type="line"/>
      <point x="306" y="638" type="line" smooth="yes"/>
      <point x="301" y="631"/>
      <point x="303" y="621"/>
      <point x="310" y="616" type="curve" smooth="yes"/>
      <point x="317" y="611"/>
      <point x="327" y="613"/>
      <point x="332" y="620" type="curve" smooth="yes"/>
      <point x="544" y="924" type="line" smooth="yes"/>
      <point x="554" y="938"/>
      <point x="548" y="949"/>
      <point x="531" y="949" type="curve" smooth="yes"/>
    </contour>
    <contour>
      <point x="319" y="645" type="curve" smooth="yes"/>
      <point x="310" y="645"/>
      <point x="303" y="638"/>
      <point x="303" y="629" type="curve" smooth="yes"/>
      <point x="303" y="620"/>
      <point x="310" y="613"/>
      <point x="319" y="613" type="curve" smooth="yes"/>
      <point x="480" y="613"/>
      <point x="612" y="481"/>
      <point x="612" y="320" type="curve" smooth="yes"/>
      <point x="612" y="115" type="line" smooth="yes"/>
      <point x="612" y="-46"/>
      <point x="480" y="-178"/>
      <point x="319" y="-178" type="curve" smooth="yes"/>
      <point x="317" y="-178" type="line" smooth="yes"/>
      <point x="214" y="-178"/>
      <point x="122" y="-124"/>
      <point x="70" y="-41" type="curve" smooth="yes"/>
      <point x="65" y="-34"/>
      <point x="55" y="-32"/>
      <point x="47" y="-36" type="curve" smooth="yes"/>
      <point x="40" y="-41"/>
      <point x="38" y="-51"/>
      <point x="42" y="-59" type="curve" smooth="yes"/>
      <point x="100" y="-150"/>
      <point x="202" y="-210"/>
      <point x="317" y="-210" type="curve" smooth="yes"/>
      <point x="319" y="-210" type="line" smooth="yes"/>
      <point x="498" y="-210"/>
      <point x="644" y="-64"/>
      <point x="644" y="115" type="curve" smooth="yes"/>
      <point x="644" y="320" type="line" smooth="yes"/>
      <point x="644" y="499"/>
      <point x="498" y="645"/>
    </contour>
  </outline>
</glyph>
<glyph name="breve" format="1">
  <advance width="292.0"/>
  <unicode hex="02D8"/>
  <outline>
    <contour>
      <point x="102" y="1328" type="curve" smooth="yes"/>
      <point x="102" y="1337"/>
      <point x="95" y="1344"/>
      <point x="86" y="1344" type="curve" smooth="yes"/>
      <point x="77" y="1344"/>
      <point x="70" y="1337"/>
      <point x="70" y="1328" type="curve" smooth="yes"/>
      <point x="70" y="1286"/>
      <point x="104" y="1252"/>
      <point x="146" y="1252" type="curve" smooth="yes"/>
      <point x="188" y="1252"/>
      <point x="222" y="1286"/>
      <point x="222" y="1328" type="curve" smooth="yes"/>
      <point x="222" y="1337"/>
      <point x="215" y="1344"/>
      <point x="206" y="1344" type="curve" smooth="yes"/>
      <point x="197" y="1344"/>
      <point x="190" y="1337"/>
      <point x="190" y="1328" type="curve" smooth="yes"/>
      <point x="190" y="1304"/>
      <point x="170" y="1284"/>
      <point x="146" y="1284" type="curve" smooth="yes"/>
      <point x="122" y="1284"/>
      <point x="102" y="1304"/>
    </contour>
  </outline>
</glyph>
<glyph name="ring" format="1">
  <advance width="292.0"/>
  <unicode hex="02DA"/>
  <outline>
    <contour>
      <point x="222" y="1328" type="curve" smooth="yes"/>
      <point x="222" y="1370"/>
      <point x="188" y="1404"/>
      <point x="146" y="1404" type="curve" smooth="yes"/>
      <point x="104" y="1404"/>
      <point x="70" y="1370"/>
      <point x="70" y="1328" type="curve" smooth="yes"/>
      <point x="70" y="1286"/>
      <point x="104" y="1252"/>
      <point x="146" y="1252" type="curve" smooth="yes"/>
      <point x="188" y="1252"/>
      <point x="222" y="1286"/>
    </contour>
    <contour>
      <point x="190" y="1328" type="curve" smooth="yes"/>
      <point x="190" y="1304"/>
      <point x="170" y="1284"/>
      <point x="146" y="1284" type="curve" smooth="yes"/>
      <point x="122" y="1284"/>
      <point x="102" y="1304"/>
      <point x="102" y="1328" type="curve" smooth="yes"/>
      <point x="102" y="1352"/>
      <point x="122" y="1372"/>
      <point x="146" y="1372" type="curve" smooth="yes"/>
      <point x="170" y="1372"/>
      <point x="190" y="1352"/>
    </contour>
  </outline>
</glyph>
<glyph name="Delta" format="1">
  <advance width="843"/>
  <unicode hex="0394"/>
  <outline>
    <contour>
      <point x="856" y="32" type="line"/>
      <point x="841" y="9" type="line"/>
      <point x="461" y="859" type="line"/>
      <point x="491" y="859" type="line"/>
      <point x="111" y="9" type="line"/>
      <point x="96" y="32" type="line"/>
    </contour>
    <contour>
      <point x="856" y="0" type="curve" smooth="yes"/>
      <point x="96" y="0" type="line" smooth="yes"/>
      <point x="82" y="0"/>
      <point x="76" y="10"/>
      <point x="81" y="23" type="curve" smooth="yes"/>
      <point x="461" y="873" type="line" smooth="yes"/>
      <point x="469" y="891"/>
      <point x="483" y="891"/>
      <point x="491" y="873" type="curve" smooth="yes"/>
      <point x="871" y="23" type="line" smooth="yes"/>
      <point x="876" y="10"/>
      <point x="870" y="0"/>
    </contour>
  </outline>
</glyph>
<glyph name="endash" format="1">
  <advance width="1000"/>
  <unicode hex="2013"/>
  <outline>
    <contour>
      <point x="96" y="467" type="line" smooth="yes"/>
      <point x="87" y="467"/>
      <point x="80" y="460"/>
      <point x="80" y="451" type="curve" smooth="yes"/>
      <point x="80" y="442"/>
      <point x="87" y="435"/>
      <point x="96" y="435" type="curve" smooth="yes"/>
      <point x="904" y="435" type="line" smooth="yes"/>
      <point x="913" y="435"/>
      <point x="920" y="442"/>
      <point x="920" y="451" type="curve" smooth="yes"/>
      <point x="920" y="460"/>
      <point x="913" y="467"/>
      <point x="904" y="467" type="curve" smooth="yes"/>
    </contour>
  </outline>
</glyph>
<glyph name="emdash" format="1">
  <advance width="2000"/>
  <unicode hex="2014"/>
  <outline>
    <contour>
      <point x="96" y="467" type="line" smooth="yes"/>
      <point x="87" y="467"/>
      <point x="80" y="460"/>
      <point x="80" y="451" type="curve" smooth="yes"/>
      <point x="80" y="442"/>
      <point x="87" y="435"/>
      <point x="96" y="435" type="curve" smooth="yes"/>
      <point x="1904" y="435" type="line" smooth="yes"/>
      <point x="1913" y="435"/>
      <point x="1920" y="442"/>
      <point x="1920" y="451" type="curve" smooth="yes"/>
      <point x="1920" y="460"/>
      <point x="1913" y="467"/>
      <point x="1904" y="467" type="curve" smooth="yes"/>
    </contour>
  </outline>
</glyph>
<glyph name="guilsinglleft" format="1">
  <advance width="284"/>
  <unicode hex="2039"/>
  <outline>
    <contour>
      <point x="197" y="308" type="line" smooth="yes"/>
      <point x="203" y="302"/>
      <point x="213" y="302"/>
      <point x="219" y="308" type="curve" smooth="yes"/>
      <point x="225" y="314"/>
      <point x="225" y="324"/>
      <point x="219" y="330" type="curve" smooth="yes"/>
      <point x="85" y="462" type="line"/>
      <point x="85" y="440" type="line"/>
      <point x="219" y="572" type="line" smooth="yes"/>
      <point x="225" y="578"/>
      <point x="225" y="588"/>
      <point x="219" y="594" type="curve" smooth="yes"/>
      <point x="213" y="600"/>
      <point x="203" y="600"/>
      <point x="197" y="594" type="curve" smooth="yes"/>
      <point x="63" y="462" type="line" smooth="yes"/>
      <point x="56" y="456"/>
      <point x="56" y="446"/>
      <point x="63" y="440" type="curve" smooth="yes"/>
    </contour>
  </outline>
</glyph>
<glyph name="guilsinglright" format="1">
  <advance width="284"/>
  <unicode hex="203A"/>
  <outline>
    <contour>
      <point x="87" y="594" type="line" smooth="yes"/>
      <point x="81" y="600"/>
      <point x="71" y="600"/>
      <point x="65" y="594" type="curve" smooth="yes"/>
      <point x="59" y="588"/>
      <point x="59" y="578"/>
      <point x="65" y="572" type="curve" smooth="yes"/>
      <point x="199" y="440" type="line"/>
      <point x="199" y="462" type="line"/>
      <point x="65" y="330" type="line" smooth="yes"/>
      <point x="59" y="324"/>
      <point x="59" y="314"/>
      <point x="65" y="308" type="curve" smooth="yes"/>
      <point x="71" y="302"/>
      <point x="81" y="302"/>
      <point x="87" y="308" type="curve" smooth="yes"/>
      <point x="221" y="440" type="line" smooth="yes"/>
      <point x="228" y="446"/>
      <point x="228" y="456"/>
      <point x="221" y="462" type="curve" smooth="yes"/>
    </contour>
  </outline>
</glyph>
<glyph name="fraction" format="1">
  <advance width="1207.0"/>
  <unicode hex="2044"/>
  <outline>
    <contour>
      <point x="1203" y="1190" type="line" smooth="yes"/>
      <point x="1209" y="1196"/>
      <point x="1209" y="1206"/>
      <point x="1203" y="1212" type="curve" smooth="yes"/>
      <point x="1197" y="1218"/>
      <point x="1187" y="1218"/>
      <point x="1181" y="1212" type="curve" smooth="yes"/>
      <point x="5" y="14" type="line" smooth="yes"/>
      <point x="-2" y="8"/>
      <point x="-2" y="-2"/>
      <point x="5" y="-8" type="curve" smooth="yes"/>
      <point x="11" y="-14"/>
      <point x="21" y="-14"/>
      <point x="27" y="-8" type="curve" smooth="yes"/>
    </contour>
  </outline>
</glyph>
<glyph name="four.sup" format="1">
  <advance width="573"/>
  <unicode hex="2074"/>
  <outline>
    <contour>
      <point x="472" y="718" type="line" smooth="yes"/>
      <point x="481" y="718"/>
      <point x="488" y="725"/>
      <point x="488" y="734" type="curve" smooth="yes"/>
      <point x="488" y="743"/>
      <point x="481" y="750"/>
      <point x="472" y="750" type="curve" smooth="yes"/>
      <point x="97" y="750" type="line"/>
      <point x="112" y="728" type="line"/>
      <point x="302" y="1178" type="line"/>
      <point x="287" y="1168" type="line"/>
      <point x="477" y="1168" type="line"/>
      <point x="461" y="1184" type="line"/>
      <point x="461" y="600" type="line" smooth="yes"/>
      <point x="461" y="591"/>
      <point x="468" y="584"/>
      <point x="477" y="584" type="curve" smooth="yes"/>
      <point x="486" y="584"/>
      <point x="493" y="591"/>
      <point x="493" y="600" type="curve" smooth="yes"/>
      <point x="493" y="1184" type="line" smooth="yes"/>
      <point x="493" y="1193"/>
      <point x="486" y="1200"/>
      <point x="477" y="1200" type="curve" smooth="yes"/>
      <point x="287" y="1200" type="line" smooth="yes"/>
      <point x="281" y="1200"/>
      <point x="275" y="1196"/>
      <point x="272" y="1190" type="curve" smooth="yes"/>
      <point x="82" y="740" type="line" smooth="yes"/>
      <point x="77" y="728"/>
      <point x="84" y="718"/>
      <point x="97" y="718" type="curve" smooth="yes"/>
    </contour>
  </outline>
</glyph>
<glyph name="seven.sup" format="1">
  <advance width="572.129955932"/>
  <unicode hex="2077"/>
  <outline>
    <contour>
      <point x="96" y="1200" type="line" smooth="yes"/>
      <point x="87" y="1200"/>
      <point x="80" y="1193"/>
      <point x="80" y="1184" type="curve" smooth="yes"/>
      <point x="80" y="1175"/>
      <point x="87" y="1168"/>
      <point x="96" y="1168" type="curve" smooth="yes"/>
      <point x="476" y="1168" type="line"/>
      <point x="461" y="1189" type="line"/>
      <point x="261" y="605" type="line" smooth="yes"/>
      <point x="258" y="597"/>
      <point x="263" y="588"/>
      <point x="271" y="585" type="curve" smooth="yes"/>
      <point x="279" y="582"/>
      <point x="288" y="587"/>
      <point x="291" y="595" type="curve" smooth="yes"/>
      <point x="491" y="1179" type="line" smooth="yes"/>
      <point x="495" y="1191"/>
      <point x="488" y="1200"/>
      <point x="476" y="1200" type="curve" smooth="yes"/>
    </contour>
  </outline>
</glyph>
<glyph name="eight.sup" format="1">
  <advance width="582"/>
  <unicode hex="2078"/>
  <outline>
    <contour>
      <point x="238" y="893" type="curve" smooth="yes"/>
      <point x="246" y="894"/>
      <point x="253" y="902"/>
      <point x="252" y="911" type="curve" smooth="yes"/>
      <point x="251" y="919"/>
      <point x="243" y="926"/>
      <point x="234" y="925" type="curve" smooth="yes"/>
      <point x="148" y="915"/>
      <point x="80" y="841"/>
      <point x="80" y="751" type="curve" smooth="yes"/>
      <point x="80" y="750" type="line" smooth="yes"/>
      <point x="80" y="654"/>
      <point x="158" y="576"/>
      <point x="255" y="576" type="curve" smooth="yes"/>
      <point x="328" y="576" type="line" smooth="yes"/>
      <point x="424" y="576"/>
      <point x="502" y="654"/>
      <point x="502" y="750" type="curve" smooth="yes"/>
      <point x="502" y="751" type="line" smooth="yes"/>
      <point x="502" y="848"/>
      <point x="424" y="926"/>
      <point x="328" y="926" type="curve" smooth="yes"/>
      <point x="255" y="926" type="line" smooth="yes"/>
      <point x="182" y="926"/>
      <point x="122" y="986"/>
      <point x="122" y="1058" type="curve" smooth="yes"/>
      <point x="122" y="1059" type="line" smooth="yes"/>
      <point x="122" y="1132"/>
      <point x="182" y="1192"/>
      <point x="255" y="1192" type="curve" smooth="yes"/>
      <point x="255" y="1192"/>
      <point x="328" y="1192"/>
      <point x="328" y="1192" type="curve" smooth="yes"/>
      <point x="400" y="1192"/>
      <point x="460" y="1132"/>
      <point x="460" y="1059" type="curve" smooth="yes"/>
      <point x="460" y="1058" type="line" smooth="yes"/>
      <point x="460" y="993"/>
      <point x="411" y="938"/>
      <point x="349" y="928" type="curve" smooth="yes"/>
      <point x="340" y="926"/>
      <point x="334" y="918"/>
      <point x="335" y="910" type="curve" smooth="yes"/>
      <point x="337" y="901"/>
      <point x="345" y="895"/>
      <point x="353" y="896" type="curve" smooth="yes"/>
      <point x="431" y="908"/>
      <point x="492" y="977"/>
      <point x="492" y="1058" type="curve" smooth="yes"/>
      <point x="492" y="1059" type="line" smooth="yes"/>
      <point x="492" y="1150"/>
      <point x="418" y="1224"/>
      <point x="328" y="1224" type="curve" smooth="yes"/>
      <point x="328" y="1224"/>
      <point x="255" y="1224"/>
      <point x="255" y="1224" type="curve" smooth="yes"/>
      <point x="164" y="1224"/>
      <point x="90" y="1150"/>
      <point x="90" y="1059" type="curve" smooth="yes"/>
      <point x="90" y="1058" type="line" smooth="yes"/>
      <point x="90" y="968"/>
      <point x="164" y="894"/>
      <point x="255" y="894" type="curve" smooth="yes"/>
      <point x="328" y="894" type="line" smooth="yes"/>
      <point x="406" y="894"/>
      <point x="470" y="830"/>
      <point x="470" y="751" type="curve" smooth="yes"/>
      <point x="470" y="750" type="line" smooth="yes"/>
      <point x="470" y="672"/>
      <point x="406" y="608"/>
      <point x="328" y="608" type="curve" smooth="yes"/>
      <point x="255" y="608" type="line" smooth="yes"/>
      <point x="176" y="608"/>
      <point x="112" y="672"/>
      <point x="112" y="750" type="curve" smooth="yes"/>
      <point x="112" y="751" type="line" smooth="yes"/>
      <point x="112" y="825"/>
      <point x="168" y="885"/>
    </contour>
  </outline>
</glyph>
<glyph name="Euro" format="1">
  <advance width="1221"/>
  <unicode hex="20AC"/>
  <outline>
    <contour>
      <point x="1132" y="1004" type="curve" smooth="yes"/>
      <point x="1138" y="998"/>
      <point x="1148" y="997"/>
      <point x="1155" y="1003" type="curve" smooth="yes"/>
      <point x="1161" y="1009"/>
      <point x="1162" y="1019"/>
      <point x="1156" y="1026" type="curve" smooth="yes"/>
      <point x="1048" y="1143"/>
      <point x="893" y="1216"/>
      <point x="722" y="1216" type="curve" smooth="yes"/>
      <point x="395" y="1216"/>
      <point x="129" y="950"/>
      <point x="129" y="624" type="curve" smooth="yes"/>
      <point x="129" y="561" type="line" smooth="yes"/>
      <point x="129" y="234"/>
      <point x="395" y="-32"/>
      <point x="722" y="-32" type="curve" smooth="yes"/>
      <point x="894" y="-32"/>
      <point x="1049" y="42"/>
      <point x="1157" y="159" type="curve" smooth="yes"/>
      <point x="1163" y="166"/>
      <point x="1162" y="176"/>
      <point x="1156" y="182" type="curve" smooth="yes"/>
      <point x="1149" y="188"/>
      <point x="1139" y="187"/>
      <point x="1133" y="181" type="curve" smooth="yes"/>
      <point x="1031" y="70"/>
      <point x="884" y="0"/>
      <point x="722" y="0" type="curve" smooth="yes"/>
      <point x="413" y="0"/>
      <point x="161" y="252"/>
      <point x="161" y="561" type="curve" smooth="yes"/>
      <point x="161" y="624" type="line" smooth="yes"/>
      <point x="161" y="932"/>
      <point x="413" y="1184"/>
      <point x="722" y="1184" type="curve" smooth="yes"/>
      <point x="883" y="1184"/>
      <point x="1030" y="1115"/>
    </contour>
    <contour>
      <point x="551" y="654" type="line" smooth="yes"/>
      <point x="560" y="654"/>
      <point x="567" y="661"/>
      <point x="567" y="670" type="curve" smooth="yes"/>
      <point x="567" y="679"/>
      <point x="560" y="686"/>
      <point x="551" y="686" type="curve" smooth="yes"/>
      <point x="76" y="686" type="line" smooth="yes"/>
      <point x="67" y="686"/>
      <point x="60" y="679"/>
      <point x="60" y="670" type="curve" smooth="yes"/>
      <point x="60" y="661"/>
      <point x="67" y="654"/>
      <point x="76" y="654" type="curve" smooth="yes"/>
    </contour>
    <contour>
      <point x="551" y="574" type="line" smooth="yes"/>
      <point x="560" y="574"/>
      <point x="567" y="581"/>
      <point x="567" y="590" type="curve" smooth="yes"/>
      <point x="567" y="599"/>
      <point x="560" y="606"/>
      <point x="551" y="606" type="curve" smooth="yes"/>
      <point x="76" y="606" type="line" smooth="yes"/>
      <point x="67" y="606"/>
      <point x="60" y="599"/>
      <point x="60" y="590" type="curve" smooth="yes"/>
      <point x="60" y="581"/>
      <point x="67" y="574"/>
      <point x="76" y="574" type="curve" smooth="yes"/>
    </contour>
  </outline>
</glyph>
<glyph name="product" format="1">
  <advance width="1328"/>
  <unicode hex="220F"/>
  <outline>
    <contour>
      <point x="1232" y="-16" type="curve" smooth="yes"/>
      <point x="1241" y="-16"/>
      <point x="1248" y="-9"/>
      <point x="1248" y="0" type="curve" smooth="yes"/>
      <point x="1248" y="9"/>
      <point x="1241" y="16"/>
      <point x="1232" y="16" type="curve" smooth="yes"/>
      <point x="1173" y="16"/>
      <point x="1124" y="65"/>
      <point x="1124" y="124" type="curve" smooth="yes"/>
      <point x="1124" y="1178" type="line" smooth="yes"/>
      <point x="1124" y="1187"/>
      <point x="1117" y="1194"/>
      <point x="1108" y="1194" type="curve" smooth="yes"/>
      <point x="1099" y="1194"/>
      <point x="1092" y="1187"/>
      <point x="1092" y="1178" type="curve" smooth="yes"/>
      <point x="1092" y="124" type="line" smooth="yes"/>
      <point x="1092" y="47"/>
      <point x="1155" y="-16"/>
    </contour>
    <contour>
      <point x="192" y="16" type="line" smooth="yes"/>
      <point x="192" y="7"/>
      <point x="199" y="0"/>
      <point x="208" y="0" type="curve" smooth="yes"/>
      <point x="217" y="0"/>
      <point x="224" y="7"/>
      <point x="224" y="16" type="curve" smooth="yes"/>
      <point x="224" y="1178" type="line" smooth="yes"/>
      <point x="224" y="1187"/>
      <point x="217" y="1194"/>
      <point x="208" y="1194" type="curve" smooth="yes"/>
      <point x="199" y="1194"/>
      <point x="192" y="1187"/>
      <point x="192" y="1178" type="curve" smooth="yes"/>
    </contour>
    <contour>
      <point x="1232" y="1168" type="line" smooth="yes"/>
      <point x="1241" y="1168"/>
      <point x="1248" y="1175"/>
      <point x="1248" y="1184" type="curve" smooth="yes"/>
      <point x="1248" y="1193"/>
      <point x="1241" y="1200"/>
      <point x="1232" y="1200" type="curve" smooth="yes"/>
      <point x="96" y="1200" type="line" smooth="yes"/>
      <point x="87" y="1200"/>
      <point x="80" y="1193"/>
      <point x="80" y="1184" type="curve" smooth="yes"/>
      <point x="80" y="1175"/>
      <point x="87" y="1168"/>
      <point x="96" y="1168" type="curve" smooth="yes"/>
    </contour>
  </outline>
</glyph>
<glyph name="summation" format="1">
  <advance width="1328"/>
  <unicode hex="2211"/>
  <outline>
    <contour>
      <point x="1232" y="1168" type="line" smooth="yes"/>
      <point x="1241" y="1168"/>
      <point x="1248" y="1175"/>
      <point x="1248" y="1184" type="curve" smooth="yes"/>
      <point x="1248" y="1193"/>
      <point x="1241" y="1200"/>
      <point x="1232" y="1200" type="curve" smooth="yes"/>
      <point x="96" y="1200" type="line" smooth="yes"/>
      <point x="75" y="1200"/>
      <point x="70" y="1188"/>
      <point x="85" y="1173" type="curve" smooth="yes"/>
      <point x="669" y="589" type="line"/>
      <point x="669" y="611" type="line"/>
      <point x="85" y="27" type="line" smooth="yes"/>
      <point x="70" y="12"/>
      <point x="75" y="0"/>
      <point x="96" y="0" type="curve" smooth="yes"/>
      <point x="1232" y="0" type="line" smooth="yes"/>
      <point x="1241" y="0"/>
      <point x="1248" y="7"/>
      <point x="1248" y="16" type="curve" smooth="yes"/>
      <point x="1248" y="25"/>
      <point x="1241" y="32"/>
      <point x="1232" y="32" type="curve" smooth="yes"/>
      <point x="96" y="32" type="line"/>
      <point x="107" y="5" type="line"/>
      <point x="691" y="589" type="line" smooth="yes"/>
      <point x="698" y="595"/>
      <point x="698" y="605"/>
      <point x="691" y="611" type="curve" smooth="yes"/>
      <point x="107" y="1195" type="line"/>
      <point x="96" y="1168" type="line"/>
    </contour>
  </outline>
</glyph>
<glyph name="minus" format="1">
  <advance width="952"/>
  <unicode hex="2212"/>
  <outline>
    <contour>
      <point x="726" y="410" type="line" smooth="yes"/>
      <point x="735" y="410"/>
      <point x="742" y="417"/>
      <point x="742" y="426" type="curve" smooth="yes"/>
      <point x="742" y="435"/>
      <point x="735" y="442"/>
      <point x="726" y="442" type="curve" smooth="yes"/>
      <point x="226" y="442" type="line" smooth="yes"/>
      <point x="217" y="442"/>
      <point x="210" y="435"/>
      <point x="210" y="426" type="curve" smooth="yes"/>
      <point x="210" y="417"/>
      <point x="217" y="410"/>
      <point x="226" y="410" type="curve" smooth="yes"/>
    </contour>
  </outline>
</glyph>
<glyph name="approxequal" format="1">
  <advance width="952"/>
  <unicode hex="2248"/>
  <outline>
    <contour>
      <point x="737" y="531" type="curve" smooth="yes"/>
      <point x="743" y="537"/>
      <point x="743" y="547"/>
      <point x="737" y="553" type="curve" smooth="yes"/>
      <point x="731" y="559"/>
      <point x="721" y="559"/>
      <point x="715" y="553" type="curve" smooth="yes"/>
      <point x="652" y="492"/>
      <point x="549" y="491"/>
      <point x="487" y="553" type="curve" smooth="yes"/>
      <point x="412" y="628"/>
      <point x="290" y="628"/>
      <point x="215" y="553" type="curve" smooth="yes"/>
      <point x="209" y="547"/>
      <point x="209" y="537"/>
      <point x="215" y="531" type="curve" smooth="yes"/>
      <point x="221" y="525"/>
      <point x="231" y="525"/>
      <point x="237" y="531" type="curve" smooth="yes"/>
      <point x="300" y="592"/>
      <point x="402" y="592"/>
      <point x="465" y="531" type="curve" smooth="yes"/>
      <point x="539" y="457"/>
      <point x="662" y="456"/>
    </contour>
    <contour>
      <point x="737" y="291" type="curve" smooth="yes"/>
      <point x="743" y="297"/>
      <point x="743" y="307"/>
      <point x="737" y="313" type="curve" smooth="yes"/>
      <point x="731" y="319"/>
      <point x="721" y="319"/>
      <point x="715" y="313" type="curve" smooth="yes"/>
      <point x="652" y="252"/>
      <point x="549" y="251"/>
      <point x="487" y="313" type="curve" smooth="yes"/>
      <point x="412" y="388"/>
      <point x="290" y="388"/>
      <point x="215" y="313" type="curve" smooth="yes"/>
      <point x="209" y="307"/>
      <point x="209" y="297"/>
      <point x="215" y="291" type="curve" smooth="yes"/>
      <point x="221" y="285"/>
      <point x="231" y="285"/>
      <point x="237" y="291" type="curve" smooth="yes"/>
      <point x="300" y="352"/>
      <point x="402" y="352"/>
      <point x="465" y="291" type="curve" smooth="yes"/>
      <point x="539" y="217"/>
      <point x="662" y="216"/>
    </contour>
  </outline>
</glyph>
<glyph name="notequal" format="1">
  <advance width="952"/>
  <unicode hex="2260"/>
  <outline>
    <contour>
      <point x="528" y="632" type="line" smooth="yes"/>
      <point x="529" y="641"/>
      <point x="523" y="649"/>
      <point x="515" y="651" type="curve" smooth="yes"/>
      <point x="506" y="652"/>
      <point x="498" y="646"/>
      <point x="496" y="638" type="curve" smooth="yes"/>
      <point x="422" y="220" type="line" smooth="yes"/>
      <point x="421" y="211"/>
      <point x="427" y="203"/>
      <point x="435" y="201" type="curve" smooth="yes"/>
      <point x="444" y="200"/>
      <point x="452" y="206"/>
      <point x="454" y="214" type="curve" smooth="yes"/>
    </contour>
    <component base="equal"/>
  </outline>
</glyph>
<glyph name="greaterequal" format="1">
  <advance width="952"/>
  <unicode hex="2265"/>
  <outline>
    <contour>
      <point x="235" y="779" type="line" smooth="yes"/>
      <point x="228" y="784"/>
      <point x="218" y="782"/>
      <point x="213" y="775" type="curve" smooth="yes"/>
      <point x="208" y="768"/>
      <point x="210" y="758"/>
      <point x="217" y="753" type="curve" smooth="yes"/>
      <point x="714" y="413" type="line"/>
      <point x="714" y="439" type="line"/>
      <point x="217" y="97" type="line" smooth="yes"/>
      <point x="210" y="92"/>
      <point x="208" y="82"/>
      <point x="213" y="75" type="curve" smooth="yes"/>
      <point x="218" y="68"/>
      <point x="228" y="66"/>
      <point x="235" y="71" type="curve" smooth="yes"/>
      <point x="732" y="413" type="line" smooth="yes"/>
      <point x="743" y="420"/>
      <point x="743" y="432"/>
      <point x="732" y="439" type="curve" smooth="yes"/>
    </contour>
    <contour>
      <point x="726" y="-16" type="line" smooth="yes"/>
      <point x="735" y="-16"/>
      <point x="742" y="-9"/>
      <point x="742" y="0" type="curve" smooth="yes"/>
      <point x="742" y="9"/>
      <point x="735" y="16"/>
      <point x="726" y="16" type="curve" smooth="yes"/>
      <point x="226" y="16" type="line" smooth="yes"/>
      <point x="217" y="16"/>
      <point x="210" y="9"/>
      <point x="210" y="0" type="curve" smooth="yes"/>
      <point x="210" y="-9"/>
      <point x="217" y="-16"/>
      <point x="226" y="-16" type="curve" smooth="yes"/>
    </contour>
  </outline>
</glyph>
<glyph name="uni24C5" format="1">
  <advance width="1345"/>
  <unicode hex="24C5"/>
  <outline>
    <contour>
      <point x="366" y="225" type="line" smooth="yes"/>
      <point x="366" y="216"/>
      <point x="373" y="209"/>
      <point x="382" y="209" type="curve" smooth="yes"/>
      <point x="391" y="209"/>
      <point x="398" y="216"/>
      <point x="398" y="225" type="curve" smooth="yes"/>
      <point x="398" y="955" type="line"/>
      <point x="382" y="939" type="line"/>
      <point x="812" y="939" type="line" smooth="yes"/>
      <point x="958" y="939"/>
      <point x="1078" y="821"/>
      <point x="1078" y="675" type="curve" smooth="yes"/>
      <point x="1078" y="673" type="line" smooth="yes"/>
      <point x="1078" y="527"/>
      <point x="958" y="408"/>
      <point x="812" y="408" type="curve" smooth="yes"/>
      <point x="391" y="408" type="line" smooth="yes"/>
      <point x="382" y="408"/>
      <point x="375" y="401"/>
      <point x="375" y="392" type="curve" smooth="yes"/>
      <point x="375" y="383"/>
      <point x="382" y="376"/>
      <point x="391" y="376" type="curve" smooth="yes"/>
      <point x="812" y="376" type="line" smooth="yes"/>
      <point x="976" y="376"/>
      <point x="1110" y="509"/>
      <point x="1110" y="673" type="curve" smooth="yes"/>
      <point x="1110" y="675" type="line" smooth="yes"/>
      <point x="1110" y="839"/>
      <point x="976" y="971"/>
      <point x="812" y="971" type="curve" smooth="yes"/>
      <point x="382" y="971" type="line" smooth="yes"/>
      <point x="373" y="971"/>
      <point x="366" y="964"/>
      <point x="366" y="955" type="curve" smooth="yes"/>
    </contour>
    <component base="O"/>
  </outline>
</glyph>
<glyph name="zero.oldstyle" format="1">
  <advance width="952"/>
  <unicode hex="F730"/>
  <outline>
    <contour>
      <point x="872" y="553" type="line" smooth="yes"/>
      <point x="872" y="771"/>
      <point x="694" y="949"/>
      <point x="476" y="949" type="curve" smooth="yes"/>
      <point x="258" y="949"/>
      <point x="80" y="771"/>
      <point x="80" y="553" type="curve" smooth="yes"/>
      <point x="80" y="378" type="line" smooth="yes"/>
      <point x="80" y="160"/>
      <point x="258" y="-16"/>
      <point x="476" y="-16" type="curve" smooth="yes"/>
      <point x="694" y="-16"/>
      <point x="872" y="160"/>
      <point x="872" y="378" type="curve" smooth="yes"/>
    </contour>
    <contour>
      <point x="840" y="553" type="curve" smooth="yes"/>
      <point x="840" y="378" type="line" smooth="yes"/>
      <point x="840" y="178"/>
      <point x="676" y="16"/>
      <point x="476" y="16" type="curve" smooth="yes"/>
      <point x="276" y="16"/>
      <point x="112" y="178"/>
      <point x="112" y="378" type="curve" smooth="yes"/>
      <point x="112" y="553" type="line" smooth="yes"/>
      <point x="112" y="753"/>
      <point x="276" y="917"/>
      <point x="476" y="917" type="curve" smooth="yes"/>
      <point x="676" y="917"/>
      <point x="840" y="753"/>
    </contour>
    <contour>
      <point x="110" y="295" type="line" smooth="yes"/>
      <point x="102" y="291"/>
      <point x="99" y="281"/>
      <point x="103" y="274" type="curve" smooth="yes"/>
      <point x="107" y="266"/>
      <point x="117" y="263"/>
      <point x="124" y="267" type="curve" smooth="yes"/>
      <point x="843" y="640" type="line" smooth="yes"/>
      <point x="851" y="644"/>
      <point x="854" y="654"/>
      <point x="850" y="661" type="curve" smooth="yes"/>
      <point x="846" y="669"/>
      <point x="836" y="672"/>
      <point x="829" y="668" type="curve" smooth="yes"/>
    </contour>
  </outline>
</glyph>
<glyph name="one.oldstyle" format="1">
  <advance width="952"/>
  <unicode hex="F731"/>
  <unicode hex="F644"/>
  <outline>
    <contour>
      <point x="460" y="16" type="line" smooth="yes"/>
      <point x="460" y="7"/>
      <point x="467" y="0"/>
      <point x="476" y="0" type="curve" smooth="yes"/>
      <point x="485" y="0"/>
      <point x="492" y="7"/>
      <point x="492" y="16" type="curve" smooth="yes"/>
      <point x="492" y="933" type="line" smooth="yes"/>
      <point x="492" y="954"/>
      <point x="480" y="959"/>
      <point x="465" y="944" type="curve" smooth="yes"/>
      <point x="85" y="564" type="line" smooth="yes"/>
      <point x="79" y="558"/>
      <point x="79" y="548"/>
      <point x="85" y="542" type="curve" smooth="yes"/>
      <point x="91" y="536"/>
      <point x="101" y="536"/>
      <point x="107" y="542" type="curve" smooth="yes"/>
      <point x="487" y="922" type="line"/>
      <point x="460" y="933" type="line"/>
    </contour>
    <contour>
      <point x="856" y="0" type="line" smooth="yes"/>
      <point x="865" y="0"/>
      <point x="872" y="7"/>
      <point x="872" y="16" type="curve" smooth="yes"/>
      <point x="872" y="25"/>
      <point x="865" y="32"/>
      <point x="856" y="32" type="curve" smooth="yes"/>
      <point x="96" y="32" type="line" smooth="yes"/>
      <point x="87" y="32"/>
      <point x="80" y="25"/>
      <point x="80" y="16" type="curve" smooth="yes"/>
      <point x="80" y="7"/>
      <point x="87" y="0"/>
      <point x="96" y="0" type="curve" smooth="yes"/>
    </contour>
  </outline>
</glyph>
<glyph name="two.oldstyle" format="1">
  <advance width="952"/>
  <unicode hex="F732"/>
  <outline>
    <contour>
      <point x="767" y="0" type="line" smooth="yes"/>
      <point x="776" y="0"/>
      <point x="783" y="7"/>
      <point x="783" y="16" type="curve" smooth="yes"/>
      <point x="783" y="25"/>
      <point x="776" y="32"/>
      <point x="767" y="32" type="curve" smooth="yes"/>
      <point x="172" y="32" type="line"/>
      <point x="188" y="16" type="line"/>
      <point x="188" y="29" type="line" smooth="yes"/>
      <point x="188" y="184"/>
      <point x="315" y="310"/>
      <point x="469" y="310" type="curve" smooth="yes"/>
      <point x="642" y="310"/>
      <point x="783" y="451"/>
      <point x="783" y="624" type="curve" smooth="yes"/>
      <point x="783" y="636" type="line" smooth="yes"/>
      <point x="783" y="808"/>
      <point x="642" y="949"/>
      <point x="469" y="949" type="curve" smooth="yes"/>
      <point x="297" y="949"/>
      <point x="156" y="808"/>
      <point x="156" y="636" type="curve" smooth="yes"/>
      <point x="156" y="627"/>
      <point x="163" y="620"/>
      <point x="172" y="620" type="curve" smooth="yes"/>
      <point x="181" y="620"/>
      <point x="188" y="627"/>
      <point x="188" y="636" type="curve" smooth="yes"/>
      <point x="188" y="790"/>
      <point x="315" y="917"/>
      <point x="469" y="917" type="curve" smooth="yes"/>
      <point x="624" y="917"/>
      <point x="751" y="790"/>
      <point x="751" y="636" type="curve" smooth="yes"/>
      <point x="751" y="624" type="line" smooth="yes"/>
      <point x="751" y="469"/>
      <point x="624" y="342"/>
      <point x="469" y="342" type="curve" smooth="yes"/>
      <point x="297" y="342"/>
      <point x="156" y="202"/>
      <point x="156" y="29" type="curve" smooth="yes"/>
      <point x="156" y="16" type="line" smooth="yes"/>
      <point x="156" y="7"/>
      <point x="163" y="0"/>
      <point x="172" y="0" type="curve" smooth="yes"/>
    </contour>
  </outline>
</glyph>
<glyph name="four.oldstyle" format="1">
  <advance width="952"/>
  <unicode hex="F734"/>
  <outline>
    <contour>
      <point x="846" y="1" type="line" smooth="yes"/>
      <point x="855" y="1"/>
      <point x="862" y="8"/>
      <point x="862" y="17" type="curve" smooth="yes"/>
      <point x="862" y="26"/>
      <point x="855" y="33"/>
      <point x="846" y="33" type="curve" smooth="yes"/>
      <point x="96" y="33" type="line"/>
      <point x="111" y="11" type="line"/>
      <point x="491" y="911" type="line"/>
      <point x="476" y="901" type="line"/>
      <point x="856" y="901" type="line"/>
      <point x="840" y="917" type="line"/>
      <point x="840" y="-251" type="line" smooth="yes"/>
      <point x="840" y="-260"/>
      <point x="847" y="-267"/>
      <point x="856" y="-267" type="curve" smooth="yes"/>
      <point x="865" y="-267"/>
      <point x="872" y="-260"/>
      <point x="872" y="-251" type="curve" smooth="yes"/>
      <point x="872" y="917" type="line" smooth="yes"/>
      <point x="872" y="926"/>
      <point x="865" y="933"/>
      <point x="856" y="933" type="curve" smooth="yes"/>
      <point x="476" y="933" type="line" smooth="yes"/>
      <point x="470" y="933"/>
      <point x="464" y="929"/>
      <point x="461" y="923" type="curve" smooth="yes"/>
      <point x="81" y="23" type="line" smooth="yes"/>
      <point x="76" y="11"/>
      <point x="83" y="1"/>
      <point x="96" y="1" type="curve" smooth="yes"/>
    </contour>
  </outline>
</glyph>
<glyph name="five.oldstyle" format="1">
  <advance width="952"/>
  <unicode hex="F735"/>
  <outline>
    <contour>
      <point x="112" y="129" type="curve" smooth="yes"/>
      <point x="112" y="138"/>
      <point x="105" y="145"/>
      <point x="96" y="145" type="curve" smooth="yes"/>
      <point x="87" y="145"/>
      <point x="80" y="138"/>
      <point x="80" y="129" type="curve" smooth="yes"/>
      <point x="80" y="-89"/>
      <point x="258" y="-267"/>
      <point x="476" y="-267" type="curve" smooth="yes"/>
      <point x="694" y="-267"/>
      <point x="872" y="-89"/>
      <point x="872" y="129" type="curve" smooth="yes"/>
      <point x="872" y="156" type="line" smooth="yes"/>
      <point x="872" y="374"/>
      <point x="694" y="552"/>
      <point x="476" y="552" type="curve" smooth="yes"/>
      <point x="96" y="552" type="line"/>
      <point x="112" y="536" type="line"/>
      <point x="112" y="933" type="line"/>
      <point x="96" y="917" type="line"/>
      <point x="840" y="917" type="line" smooth="yes"/>
      <point x="849" y="917"/>
      <point x="856" y="924"/>
      <point x="856" y="933" type="curve" smooth="yes"/>
      <point x="856" y="942"/>
      <point x="849" y="949"/>
      <point x="840" y="949" type="curve" smooth="yes"/>
      <point x="96" y="949" type="line" smooth="yes"/>
      <point x="87" y="949"/>
      <point x="80" y="942"/>
      <point x="80" y="933" type="curve" smooth="yes"/>
      <point x="80" y="536" type="line" smooth="yes"/>
      <point x="80" y="527"/>
      <point x="87" y="520"/>
      <point x="96" y="520" type="curve" smooth="yes"/>
      <point x="476" y="520" type="line" smooth="yes"/>
      <point x="676" y="520"/>
      <point x="840" y="356"/>
      <point x="840" y="156" type="curve" smooth="yes"/>
      <point x="840" y="129" type="line" smooth="yes"/>
      <point x="840" y="-71"/>
      <point x="676" y="-235"/>
      <point x="476" y="-235" type="curve" smooth="yes"/>
      <point x="276" y="-235"/>
      <point x="112" y="-71"/>
    </contour>
  </outline>
</glyph>
<glyph name="seven.oldstyle" format="1">
  <advance width="616.0"/>
  <unicode hex="F737"/>
  <outline>
    <contour>
      <point x="96" y="933" type="line" smooth="yes"/>
      <point x="87" y="933"/>
      <point x="80" y="926"/>
      <point x="80" y="917" type="curve" smooth="yes"/>
      <point x="80" y="908"/>
      <point x="87" y="901"/>
      <point x="96" y="901" type="curve" smooth="yes"/>
      <point x="856" y="901" type="line"/>
      <point x="841" y="922" type="line"/>
      <point x="441" y="-246" type="line" smooth="yes"/>
      <point x="438" y="-254"/>
      <point x="443" y="-263"/>
      <point x="451" y="-266" type="curve" smooth="yes"/>
      <point x="459" y="-269"/>
      <point x="468" y="-264"/>
      <point x="471" y="-256" type="curve" smooth="yes"/>
      <point x="871" y="912" type="line" smooth="yes"/>
      <point x="875" y="924"/>
      <point x="868" y="933"/>
      <point x="856" y="933" type="curve" smooth="yes"/>
    </contour>
  </outline>
</glyph>
<glyph name="nine.oldstyle" format="1">
  <advance width="952"/>
  <unicode hex="F739"/>
  <outline>
    <contour>
      <point x="112" y="0" type="curve" smooth="yes"/>
      <point x="112" y="9"/>
      <point x="105" y="16"/>
      <point x="96" y="16" type="curve" smooth="yes"/>
      <point x="87" y="16"/>
      <point x="80" y="9"/>
      <point x="80" y="0" type="curve" smooth="yes"/>
      <point x="80" y="-218"/>
      <point x="258" y="-396"/>
      <point x="476" y="-396" type="curve" smooth="yes"/>
      <point x="694" y="-396"/>
      <point x="872" y="-218"/>
      <point x="872" y="0" type="curve" smooth="yes"/>
      <point x="872" y="555" type="line" smooth="yes"/>
      <point x="872" y="773"/>
      <point x="694" y="949"/>
      <point x="476" y="949" type="curve" smooth="yes"/>
      <point x="258" y="949"/>
      <point x="80" y="773"/>
      <point x="80" y="555" type="curve" smooth="yes"/>
      <point x="80" y="380" type="line" smooth="yes"/>
      <point x="80" y="162"/>
      <point x="258" y="-16"/>
      <point x="476" y="-16" type="curve" smooth="yes"/>
      <point x="679" y="-16"/>
      <point x="848" y="139"/>
      <point x="870" y="337" type="curve" smooth="yes"/>
      <point x="871" y="346"/>
      <point x="864" y="354"/>
      <point x="856" y="355" type="curve" smooth="yes"/>
      <point x="847" y="356"/>
      <point x="839" y="349"/>
      <point x="838" y="341" type="curve" smooth="yes"/>
      <point x="818" y="159"/>
      <point x="663" y="16"/>
      <point x="476" y="16" type="curve" smooth="yes"/>
      <point x="276" y="16"/>
      <point x="112" y="180"/>
      <point x="112" y="380" type="curve" smooth="yes"/>
      <point x="112" y="555" type="line" smooth="yes"/>
      <point x="112" y="755"/>
      <point x="276" y="917"/>
      <point x="476" y="917" type="curve" smooth="yes"/>
      <point x="676" y="917"/>
      <point x="840" y="755"/>
      <point x="840" y="555" type="curve" smooth="yes"/>
      <point x="840" y="0" type="line" smooth="yes"/>
      <point x="840" y="-200"/>
      <point x="676" y="-364"/>
      <point x="476" y="-364" type="curve" smooth="yes"/>
      <point x="276" y="-364"/>
      <point x="112" y="-200"/>
    </contour>
  </outline>
</glyph>
